<?xml version="1.0" standalone="no"?>
<!DOCTYPE svg PUBLIC "-//W3C//DTD SVG 20010904//EN"
 "http://www.w3.org/TR/2001/REC-SVG-20010904/DTD/svg10.dtd">
<svg version="1.0" xmlns="http://www.w3.org/2000/svg"
 width="1000.000000pt" height="1000.000000pt" viewBox="0 0 1000.000000 1000.000000"
 preserveAspectRatio="xMidYMid meet">

<g transform="translate(0.000000,1000.000000) scale(0.100000,-0.100000)"
fill="#000000" stroke="none">
<path d="M4265 8871 c-3 -5 -1 -21 4 -34 13 -33 41 -223 41 -273 0 -28 -10
-55 -37 -94 -49 -74 -133 -171 -143 -165 -4 2 -19 29 -34 60 l-26 55 21 51
c11 29 17 54 14 57 -11 12 -101 -20 -159 -55 l-59 -36 -25 29 c-60 70 -132
144 -140 144 -5 0 -12 -39 -15 -87 -14 -210 -152 -573 -309 -818 -151 -233
-232 -487 -245 -762 -3 -73 -8 -133 -10 -133 -2 0 -60 14 -129 31 -68 18 -128
29 -132 25 -3 -4 -11 -139 -17 -301 -5 -161 -13 -296 -16 -299 -3 -4 -76 143
-161 326 l-155 333 -238 13 c-131 6 -240 10 -242 9 -2 -2 13 -102 32 -223 20
-120 34 -224 33 -231 -2 -8 -66 115 -142 272 -138 282 -139 285 -170 285 -69
-1 -507 -38 -513 -44 -4 -3 10 -46 30 -96 20 -49 37 -91 37 -93 0 -2 -50 -23
-110 -47 -61 -24 -110 -47 -110 -51 0 -5 45 -111 100 -235 55 -125 99 -229 97
-231 -2 -1 -97 38 -212 88 -114 49 -213 88 -219 86 -14 -6 -80 -317 -69 -327
4 -4 61 -36 126 -70 65 -34 117 -64 115 -65 -2 -2 -57 -24 -123 -48 -65 -24
-120 -48 -122 -53 -6 -18 223 -429 238 -428 8 1 75 18 149 37 74 19 155 38
180 42 l45 8 -110 -82 c-60 -45 -110 -86 -110 -91 0 -5 42 -64 93 -130 l94
-121 116 62 c126 66 126 65 28 -38 -33 -35 -47 -56 -40 -63 14 -14 491 -240
506 -240 8 0 65 42 127 94 62 52 134 109 160 127 51 38 55 45 -38 -74 -24 -31
-41 -63 -38 -70 5 -13 355 -177 378 -177 8 0 52 34 98 75 46 42 87 73 90 70 3
-4 1 -9 -5 -13 -6 -4 -36 -38 -68 -76 -68 -80 -81 -61 116 -165 76 -40 140
-76 143 -81 3 -5 -5 -12 -17 -15 -109 -33 -451 -180 -663 -285 -270 -134 -641
-340 -662 -368 -17 -21 -16 -123 2 -218 8 -42 16 -79 19 -81 2 -2 30 12 63 31
55 32 62 34 104 25 83 -18 111 -30 105 -45 -3 -8 -58 -82 -122 -164 -64 -82
-117 -152 -117 -157 -2 -6 236 -112 255 -113 3 0 41 48 82 107 42 59 76 101
76 95 0 -6 -9 -71 -21 -143 -11 -72 -18 -133 -15 -136 7 -8 439 97 453 111 6
6 33 64 59 130 49 124 51 126 132 150 l22 7 0 -175 0 -176 28 0 c15 0 66 6
115 14 48 7 87 10 87 6 0 -4 -9 -33 -20 -66 -66 -190 -124 -440 -157 -669 -13
-96 -18 -189 -18 -355 1 -235 9 -307 56 -480 20 -75 25 -83 66 -111 60 -41
141 -69 203 -69 39 0 72 -10 147 -45 53 -25 102 -45 109 -45 9 0 14 12 14 35
l0 35 47 0 c27 0 74 -11 112 -26 42 -17 93 -28 143 -32 l78 -5 0 41 c0 40 1
42 43 53 23 6 53 19 67 29 24 18 26 17 82 -11 67 -34 88 -36 88 -11 0 34 -26
106 -54 151 -26 41 -27 47 -17 83 7 21 41 97 76 167 64 127 130 223 186 269
l28 23 113 -60 c194 -103 381 -172 564 -209 l87 -18 50 -89 c155 -282 228
-384 295 -413 61 -26 151 -49 226 -58 41 -5 95 -24 172 -61 147 -69 149 -69
141 6 l-7 60 55 11 c45 9 73 8 172 -10 65 -11 151 -30 192 -41 92 -25 106 -17
98 53 l-6 48 79 0 c78 0 80 1 80 24 0 15 -27 58 -70 113 l-71 88 -3 295 c-3
162 -7 318 -11 345 l-7 50 49 30 c37 22 322 232 389 286 8 6 17 -6 29 -38 60
-158 337 -709 443 -882 l47 -75 60 -13 c33 -7 113 -19 178 -28 65 -9 139 -25
165 -36 58 -25 196 -59 240 -59 l32 0 -16 38 c-9 20 -18 43 -21 51 -9 21 47 9
152 -33 77 -30 102 -35 174 -36 90 0 92 1 66 63 -7 16 -2 17 64 11 59 -6 72
-4 77 9 8 22 -27 72 -98 138 l-61 56 17 74 c50 218 43 540 -18 910 -60 359
-136 627 -236 825 l-56 113 35 34 c20 19 59 49 86 67 273 182 521 419 659 630
65 98 81 116 146 157 109 69 170 147 170 216 0 51 -21 102 -95 233 -49 85 -73
141 -86 197 -32 131 -129 364 -188 452 -13 19 -21 46 -21 73 0 24 -5 63 -11
87 -10 41 -19 50 -93 99 -124 82 -123 81 -129 216 -5 119 -35 307 -62 396 -22
75 -54 118 -91 122 -77 8 -377 -85 -546 -169 l-78 -38 -82 16 c-46 8 -84 16
-86 18 -2 1 15 98 37 216 23 117 38 215 36 218 -10 9 -209 70 -232 70 -12 1
-24 5 -27 9 -3 5 45 16 107 26 62 10 175 30 251 45 138 26 140 27 148 56 12
45 66 313 73 367 l7 47 -98 -6 c-55 -3 -142 -11 -194 -18 -52 -7 -97 -11 -99
-9 -4 4 187 94 199 94 4 0 10 34 14 77 6 82 9 443 2 443 -13 0 -249 -110 -345
-161 -62 -33 -116 -57 -120 -54 -3 4 -8 95 -11 203 l-5 197 -94 3 -94 3 6 59
7 60 -28 0 c-103 -1 -403 -41 -428 -58 -6 -4 -23 -133 -39 -309 -16 -167 -31
-303 -34 -303 -4 0 -64 94 -136 210 -71 115 -133 210 -136 210 -5 0 -163 -167
-252 -266 l-37 -42 35 -167 c19 -92 35 -170 35 -173 0 -4 -21 34 -46 83 -144
282 -342 480 -692 690 -74 44 -156 100 -183 125 -45 41 -53 55 -85 149 -19 58
-37 108 -40 112 -2 4 -43 -10 -90 -32 -47 -21 -89 -39 -94 -39 -4 0 -18 32
-30 70 -12 39 -27 73 -32 76 -6 4 -34 -17 -64 -47 l-53 -53 -21 50 c-12 27
-23 50 -25 53 -2 2 -28 -15 -56 -38 -41 -33 -54 -39 -61 -28 -24 44 -301 236
-313 218z m141 -103 c42 -28 100 -76 130 -105 l55 -54 45 37 c24 20 46 35 48
33 2 -2 13 -25 24 -51 12 -27 25 -48 31 -48 5 0 32 26 59 57 l50 57 16 -37 c8
-21 18 -53 22 -73 4 -20 12 -38 18 -40 7 -3 50 13 96 35 47 21 88 36 91 33 3
-4 21 -51 40 -105 29 -89 38 -103 82 -142 27 -24 109 -78 181 -121 370 -221
561 -422 720 -756 55 -116 95 -242 82 -256 -3 -2 -81 56 -173 130 -298 238
-292 233 -308 217 -8 -8 -48 -61 -89 -119 -51 -70 -74 -110 -70 -122 4 -15 -1
-18 -30 -18 -43 0 -52 -9 -217 -190 -150 -164 -192 -205 -264 -252 -82 -54
-94 -55 -168 -20 -114 53 -232 177 -336 353 -70 117 -137 284 -146 359 -17
149 -40 289 -61 372 -12 47 -12 77 -3 180 14 150 5 488 -16 608 -8 47 -15 89
-15 94 0 13 27 -1 106 -56z m-574 -301 c33 -39 38 -50 28 -62 -27 -33 1 -25
47 13 51 42 98 69 145 83 32 9 32 10 17 -28 -47 -124 -85 -373 -96 -628 -5
-130 -9 -154 -27 -180 -11 -16 -102 -129 -201 -250 -273 -333 -324 -405 -404
-563 l-40 -80 -67 16 -67 17 6 135 c11 277 84 506 240 754 76 122 201 386 246
521 41 124 71 261 71 323 l0 36 31 -30 c17 -16 49 -50 71 -77z m468 -377 c-6
-69 -20 -172 -30 -230 -21 -117 -79 -382 -85 -389 -14 -13 -139 129 -175 199
-16 30 -15 144 2 339 l11 135 115 125 c63 69 127 144 141 165 l26 40 3 -130
c2 -71 -2 -185 -8 -254z m-190 197 c0 -4 -18 -27 -41 -50 -28 -29 -39 -36 -36
-22 3 11 11 51 18 89 l12 69 23 -39 c13 -21 24 -43 24 -47z m3026 -68 c-6
-114 -4 -140 6 -137 8 3 15 30 18 79 l5 74 76 3 76 3 7 -32 c3 -17 6 -110 6
-206 0 -135 3 -175 13 -179 8 -2 114 45 238 106 l224 110 3 -52 c2 -29 1 -117
-3 -195 l-7 -143 -259 -131 c-143 -73 -257 -134 -254 -137 2 -2 48 4 102 14
54 10 103 17 110 16 6 -2 61 6 122 17 62 11 166 24 233 27 l121 7 -7 -59 c-4
-32 -21 -122 -39 -199 l-32 -139 -70 -14 c-39 -8 -166 -31 -284 -51 -118 -20
-216 -42 -218 -48 -3 -7 20 -16 54 -23 101 -20 273 -73 273 -84 0 -6 -16 -100
-37 -208 -27 -145 -40 -198 -51 -198 -7 0 -59 15 -115 33 -56 19 -145 44 -197
57 -52 12 -98 26 -103 29 -4 4 28 27 70 51 141 79 186 111 175 122 -14 14
-413 4 -641 -16 -101 -9 -188 -15 -193 -14 -5 2 4 18 19 35 l28 33 220 31
c251 35 253 35 237 51 -8 8 -68 2 -218 -20 -115 -17 -210 -29 -212 -27 -2 2
71 102 162 223 91 121 166 222 166 226 0 24 -42 -13 -149 -134 -69 -77 -128
-140 -131 -140 -3 0 -44 83 -91 185 -46 102 -90 185 -96 185 -7 0 -13 -4 -13
-8 0 -5 40 -95 89 -200 l89 -192 -85 -95 c-47 -53 -89 -93 -93 -88 -4 4 -60
73 -125 153 -65 80 -180 213 -255 295 -75 83 -140 156 -144 163 -4 7 53 -35
127 -93 74 -58 137 -105 141 -105 12 0 6 37 -54 325 -34 160 -59 297 -58 307
2 9 60 77 130 152 l128 135 136 -219 c75 -121 140 -220 144 -220 12 0 17 30
46 338 16 161 31 297 35 303 7 12 146 35 284 47 55 5 106 10 114 11 12 1 13
-22 7 -140z m-5158 -1514 c138 -278 181 -355 182 -317 0 4 -18 125 -41 270
-23 144 -40 264 -38 266 3 2 432 -20 435 -23 1 -1 81 -173 179 -383 98 -211
183 -389 188 -396 21 -27 28 6 9 44 -18 38 -18 51 -6 352 6 172 14 316 17 319
6 6 340 -74 368 -88 10 -5 23 -45 38 -118 16 -77 28 -111 37 -111 17 0 18 -6
-10 118 l-23 104 21 -6 c11 -3 26 -6 33 -6 26 0 52 -90 82 -285 36 -232 69
-485 65 -485 -2 0 -15 24 -30 53 -36 72 -125 227 -134 232 -4 2 -12 -53 -19
-123 -11 -109 -49 -344 -68 -420 -7 -31 -11 -27 -83 108 -80 148 -190 330
-200 330 -11 0 -39 -113 -55 -218 -8 -52 -16 -97 -19 -99 -2 -3 -64 1 -138 7
-129 12 -315 8 -403 -9 -29 -5 -74 0 -165 21 -169 37 -210 43 -210 29 0 -6 6
-14 13 -16 6 -2 59 -18 116 -36 l105 -32 -95 -32 c-107 -36 -223 -85 -289
-120 l-45 -24 203 6 c111 3 202 4 202 0 0 -3 -29 -15 -64 -27 -146 -48 -458
-221 -727 -403 l-27 -17 -66 86 c-36 48 -66 89 -66 93 1 3 88 70 195 149 175
129 213 162 186 162 -4 0 -39 -23 -76 -51 -64 -49 -75 -54 -194 -79 -69 -15
-161 -37 -205 -49 -43 -13 -82 -19 -86 -14 -8 8 -210 382 -210 388 0 2 59 24
130 50 72 26 130 53 130 59 0 6 -59 42 -130 79 -88 46 -130 74 -130 85 0 29
53 272 60 272 3 0 104 -42 225 -94 121 -52 223 -91 228 -87 4 4 -40 114 -98
245 -58 132 -105 241 -105 245 0 9 192 83 198 76 3 -3 36 -76 72 -162 36 -86
71 -158 78 -161 7 -2 12 1 12 7 0 6 -47 124 -105 263 -58 138 -103 253 -100
256 4 4 366 36 467 41 25 1 34 -15 186 -324z m4645 136 c-87 -115 -120 -146
-111 -106 3 13 197 235 205 235 2 0 -40 -58 -94 -129z m1800 -269 c9 -10 26
-45 37 -78 37 -105 95 -504 74 -504 -5 0 -31 21 -58 48 -52 49 -47 37 16 -37
45 -53 146 -135 199 -161 47 -24 58 -44 70 -124 13 -92 -17 -481 -46 -599 -6
-22 0 -27 77 -57 46 -18 109 -46 140 -62 32 -15 62 -28 68 -28 5 0 10 15 10
33 0 30 3 28 42 -38 22 -38 54 -99 70 -135 49 -104 29 -170 -73 -251 -31 -24
-39 -28 -31 -13 6 12 18 26 26 34 9 7 16 19 16 27 0 20 -67 123 -86 130 -8 3
-98 -29 -199 -71 -102 -42 -207 -79 -233 -83 -54 -6 -77 4 -332 142 l-145 78
-124 5 c-126 4 -217 -4 -446 -39 -178 -28 -561 -114 -668 -150 -150 -50 -327
-147 -457 -249 -86 -69 -40 -58 59 14 50 35 116 79 147 97 l57 32 96 -103 c74
-79 101 -102 115 -97 21 8 62 97 105 230 26 78 37 98 54 102 170 39 402 87
477 99 222 36 263 40 410 40 l155 1 90 -46 c50 -25 147 -76 217 -112 100 -53
137 -67 171 -67 44 0 127 25 246 75 35 14 64 25 66 23 1 -2 15 -54 30 -116
l28 -113 -57 -84 c-141 -207 -386 -436 -686 -639 -100 -68 -344 -190 -481
-240 -386 -141 -740 -183 -1097 -130 -57 8 -116 13 -131 11 l-26 -3 28 -12
c65 -28 267 -44 482 -39 187 4 227 8 365 36 238 50 427 115 632 216 l110 56
-41 -48 c-22 -26 -58 -68 -80 -93 -22 -25 -36 -49 -32 -53 8 -8 39 22 136 131
20 23 41 42 45 42 16 0 90 -159 135 -290 41 -119 101 -339 120 -440 8 -42 12
-45 -99 88 -126 150 -161 167 -228 112 -56 -47 -157 -186 -199 -275 -59 -125
-59 -127 -2 -163 93 -59 272 -136 448 -193 l69 -22 38 21 38 20 7 -26 c4 -15
8 -133 8 -262 0 -313 -20 -429 -87 -489 -39 -36 -43 -37 -75 -11 -52 41 -111
13 -168 -79 -48 -78 -71 -81 -135 -16 -35 36 -51 45 -78 45 -46 0 -84 -22
-114 -68 l-26 -39 -74 9 c-108 12 -251 39 -266 51 -52 41 -514 952 -500 986 2
5 96 90 211 190 192 169 224 201 196 201 -5 0 -110 -88 -232 -195 -239 -209
-383 -325 -544 -435 l-101 -70 -6 27 c-3 16 -15 78 -26 138 -39 205 -106 420
-195 631 -57 133 -155 324 -167 324 -4 0 -8 -2 -8 -5 0 -2 36 -78 79 -167 224
-460 323 -890 325 -1398 0 -207 -2 -229 -35 -363 l-10 -37 -52 53 c-57 58
-104 82 -140 73 -69 -17 -159 -120 -172 -196 -7 -41 -11 -43 -77 -54 l-36 -7
-44 82 c-23 45 -49 84 -56 87 -20 7 -87 -64 -119 -125 l-28 -54 -45 6 c-67 9
-169 36 -216 55 -54 23 -95 73 -186 227 -311 521 -491 1061 -513 1538 -7 148
-13 185 -27 185 -16 0 -3 -251 23 -424 37 -255 137 -594 254 -862 31 -71 59
-134 61 -140 11 -25 -205 29 -366 92 -296 116 -743 392 -907 561 -33 34 -64
63 -67 63 -41 0 110 -150 252 -250 86 -61 295 -195 317 -204 6 -2 -7 -18 -27
-35 -83 -71 -199 -280 -273 -496 -41 -118 -43 -120 -86 -142 -57 -30 -77 -29
-90 5 -6 15 -26 55 -45 89 l-34 61 -36 -11 c-52 -16 -119 -80 -150 -142 -25
-52 -28 -55 -64 -55 -36 0 -38 2 -68 62 -41 83 -87 132 -110 118 -52 -30 -92
-89 -92 -134 l0 -29 -57 6 c-59 5 -150 40 -190 74 -27 22 -66 161 -88 313 -15
107 -20 344 -9 437 l7 52 81 -107 c87 -114 117 -139 158 -129 58 15 191 163
267 298 37 67 40 118 11 210 -32 105 -207 429 -232 429 -21 0 -93 -44 -134
-82 -24 -22 -44 -37 -44 -34 0 4 21 70 46 147 88 271 206 528 326 709 112 171
274 318 548 500 237 157 723 495 800 557 177 141 394 370 504 532 20 29 36 46
36 38 0 -8 -11 -97 -25 -197 -27 -198 -30 -250 -15 -250 6 0 10 11 10 25 0 14
12 108 26 208 28 196 28 254 0 432 -37 242 -50 395 -51 600 0 181 3 218 19
268 13 39 26 61 40 67 12 4 82 13 158 20 264 26 779 -29 953 -101 l30 -12 -39
-12 c-22 -6 -42 -17 -44 -23 -5 -16 -8 -16 91 13 151 44 285 57 643 62 l331 5
112 -96 c261 -226 659 -481 721 -461 34 11 43 68 36 218 -6 121 -4 139 8 134
9 -4 18 -2 21 3 12 19 -152 87 -300 125 l-90 22 70 33 c169 79 417 158 496
160 23 0 42 -7 52 -18z m-928 -148 c246 -21 626 -124 633 -171 3 -23 -19 -27
-183 -39 -83 -5 -103 -2 -260 36 -182 45 -182 45 -295 149 l-45 42 40 -5 c22
-3 72 -8 110 -12z m1348 -931 c60 -127 92 -209 117 -297 21 -75 37 -196 27
-196 -4 0 -22 8 -42 17 -32 15 -35 20 -35 59 0 122 -52 330 -105 423 -24 42
-33 91 -17 91 5 0 29 -44 55 -97z m144 -775 c11 -13 28 -37 38 -55 l19 -32
-60 -72 c-33 -40 -64 -72 -70 -71 -9 1 -53 151 -53 188 -1 16 11 27 47 42 60
26 55 26 79 0z m-2063 -165 c-46 -131 -75 -193 -90 -193 -7 0 -49 41 -94 92
l-83 91 39 20 c48 25 223 87 246 87 14 0 11 -14 -18 -97z m-3859 -65 c43 -21
46 -21 80 -5 33 16 45 12 26 -8 -8 -10 -101 -282 -101 -298 0 -4 7 -7 16 -7
10 0 14 -6 10 -17 -32 -105 -139 -705 -157 -880 l-13 -121 -56 -7 c-30 -3 -65
-9 -76 -12 -22 -5 -22 -4 -29 292 l-8 297 53 134 c29 74 50 137 46 141 -14 14
-190 -181 -235 -260 -56 -100 -147 -310 -200 -463 l-42 -120 -135 -33 c-74
-18 -138 -31 -141 -27 -3 3 9 102 27 221 18 119 30 218 27 221 -14 14 -25 -11
-32 -70 -6 -59 -12 -72 -86 -177 -44 -63 -83 -115 -88 -117 -10 -3 -202 75
-215 88 -4 4 41 70 101 147 60 76 139 179 174 228 130 180 239 337 239 346 0
24 -24 3 -64 -58 -45 -66 -46 -67 -273 -198 -152 -89 -230 -129 -235 -121 -13
22 -31 183 -24 217 7 39 9 41 277 189 265 148 626 326 638 315 2 -2 -38 -126
-89 -275 -51 -149 -90 -273 -87 -276 15 -15 32 26 117 284 51 152 99 283 108
289 12 10 299 127 382 156 8 3 16 6 17 6 1 1 23 -9 48 -21z m5178 -1595 c47
-57 88 -115 91 -130 19 -103 37 -236 34 -259 -5 -41 -52 -67 -101 -53 -20 5
-39 13 -41 18 -3 5 -24 78 -46 162 -32 126 -40 171 -40 246 0 79 6 131 15 121
2 -2 41 -49 88 -105z m193 -1275 c28 -29 56 -64 63 -76 11 -21 10 -22 -26 -22
-75 1 -114 17 -154 62 l-38 43 36 32 c42 38 48 37 119 -39z m-209 30 c32 -24
56 -51 116 -131 52 -69 50 -76 -25 -70 -95 7 -258 62 -258 87 0 21 65 110 90
123 34 17 42 16 77 -9z m-305 -105 c57 -59 84 -100 74 -111 -9 -8 -140 22
-209 48 l-57 22 21 30 c24 33 75 68 99 68 9 0 41 -26 72 -57z m-4224 -73 c14
-30 27 -76 30 -104 l5 -49 -69 6 c-72 6 -184 41 -184 58 0 42 82 142 135 165
36 15 43 9 83 -76z m278 35 c22 -51 31 -95 19 -95 -19 0 -95 47 -91 56 3 7 10
30 17 53 7 23 16 41 21 41 5 0 20 -25 34 -55z m-662 -65 c14 -25 28 -65 32
-88 l7 -42 -89 41 c-49 23 -92 44 -96 48 -14 13 14 85 45 114 l31 29 23 -28
c12 -16 33 -49 47 -74z m2938 39 c70 -50 137 -164 138 -233 0 -35 -2 -38 -22
-32 -65 19 -240 56 -291 62 -32 4 -61 12 -63 18 -6 17 21 92 47 128 12 17 43
44 68 60 50 32 74 31 123 -3z m203 -20 c57 -72 85 -112 85 -121 0 -4 -34 -8
-75 -8 -57 0 -76 4 -83 16 -9 16 16 164 28 164 3 -1 23 -24 45 -51z m-579
-254 c7 -27 11 -51 8 -54 -4 -5 -224 100 -224 107 0 15 49 95 78 124 l36 38
44 -83 c25 -45 51 -104 58 -132z"/>
<path d="M5268 6293 c-16 -37 -15 -394 1 -527 16 -124 52 -271 68 -271 6 0 61
41 121 90 60 50 148 121 196 159 47 37 86 70 86 73 0 65 -390 503 -449 503 -6
0 -17 -12 -23 -27z"/>
<path d="M7556 5965 c-57 -23 -106 -59 -106 -78 0 -29 176 -198 300 -286 41
-30 45 -31 57 -15 41 56 -22 271 -108 369 -37 42 -61 44 -143 10z"/>
<path d="M7140 5911 c0 -5 12 -17 28 -27 65 -42 171 -136 209 -186 23 -29 58
-86 78 -126 20 -40 40 -70 46 -66 15 9 -76 173 -132 236 -48 55 -200 178 -220
178 -5 0 -9 -4 -9 -9z"/>
<path d="M8576 5778 c-13 -49 -19 -275 -7 -282 8 -5 11 10 11 51 0 32 5 98 10
148 9 84 0 135 -14 83z"/>
<path d="M6470 5727 c-90 -5 -176 -14 -190 -20 l-25 -11 23 -4 c16 -2 21 -8
17 -21 -26 -84 -32 -357 -10 -502 21 -145 91 -316 125 -305 8 2 83 32 165 66
185 75 541 196 735 248 79 22 146 44 148 50 9 27 -291 263 -460 361 -225 131
-297 150 -528 138z m139 -49 c-5 -18 -10 -94 -9 -168 0 -171 24 -291 80 -408
22 -47 37 -88 33 -92 -4 -4 -48 -22 -98 -40 -49 -18 -118 -45 -152 -60 l-61
-28 -31 67 c-61 132 -74 205 -75 416 -1 120 4 217 12 262 l14 72 86 4 c48 1
115 4 149 5 l62 2 -10 -32z"/>
<path d="M8260 4922 c0 -5 19 -19 43 -32 23 -13 61 -36 84 -52 58 -39 62 -19
4 24 -74 55 -131 81 -131 60z"/>
<path d="M8617 4892 c-39 -40 -45 -52 -24 -52 16 0 77 62 77 78 0 21 -15 13
-53 -26z"/>
<path d="M4520 4563 c-40 -16 -217 -158 -314 -252 -229 -223 -431 -520 -444
-650 -4 -45 -2 -53 25 -80 56 -55 205 -54 415 4 146 40 249 84 272 117 22 31
58 148 113 363 40 162 45 193 46 306 2 137 -6 168 -50 188 -26 12 -40 13 -63
4z"/>
<path d="M3562 3548 c-21 -27 -132 -259 -132 -277 0 -32 34 -43 108 -36 112
12 167 43 178 101 8 41 -17 126 -53 182 -23 35 -33 42 -59 42 -17 0 -36 -6
-42 -12z"/>
<path d="M5421 3109 c-31 -51 -46 -153 -46 -314 0 -225 38 -365 108 -402 45
-24 233 -29 355 -10 151 25 201 62 210 155 3 34 -1 61 -13 88 -22 48 -304 330
-437 437 -112 90 -145 99 -177 46z"/>
<path d="M7674 2248 c-51 -45 -94 -106 -94 -134 0 -13 12 -35 27 -48 32 -30
141 -76 179 -76 29 0 84 49 84 75 0 45 -119 215 -150 215 -5 0 -26 -15 -46
-32z"/>
<path d="M5402 2178 c-31 -39 -42 -175 -18 -231 27 -64 37 -67 161 -53 115 13
138 21 169 55 43 47 16 95 -94 166 -106 68 -193 93 -218 63z"/>
</g>
</svg>
