<?xml version="1.0" standalone="no"?>
<!DOCTYPE svg PUBLIC "-//W3C//DTD SVG 20010904//EN"
 "http://www.w3.org/TR/2001/REC-SVG-20010904/DTD/svg10.dtd">
<svg version="1.0" xmlns="http://www.w3.org/2000/svg"
 width="1000.000000pt" height="1000.000000pt" viewBox="0 0 1000.000000 1000.000000"
 preserveAspectRatio="xMidYMid meet">

<g transform="translate(0.000000,1000.000000) scale(0.100000,-0.100000)"
fill="#000000" stroke="none">
<path d="M4020 8863 c-160 -11 -626 -87 -693 -112 -82 -32 -329 -187 -487
-306 l-95 -72 -100 -7 c-55 -4 -119 -12 -142 -17 -87 -19 -854 -393 -887 -432
-23 -28 -77 -136 -101 -202 -17 -47 -34 -69 -77 -99 -15 -11 -19 -43 -28 -225
-12 -227 -8 -264 38 -334 l19 -27 79 61 c168 131 576 390 749 476 142 71 373
167 350 145 -5 -5 -62 -45 -125 -87 -175 -118 -315 -229 -423 -336 l-99 -97 8
-49 c11 -78 29 -128 45 -131 9 -2 76 24 149 57 74 34 135 59 137 57 2 -1 -45
-53 -103 -115 l-106 -112 27 -38 c84 -123 286 -281 475 -373 157 -77 140 -76
212 -11 93 82 305 219 283 182 -5 -7 -20 -32 -35 -54 -60 -90 -122 -215 -108
-219 15 -5 320 -66 330 -66 4 0 2 -13 -3 -30 l-11 -30 -129 0 -129 0 -6 -25
c-3 -14 -8 -25 -11 -25 -3 0 -34 27 -70 60 l-64 61 -107 -6 c-116 -7 -252 -31
-252 -45 0 -5 9 -32 20 -60 23 -59 23 -59 -73 18 l-68 55 -66 -7 c-77 -8 -254
-45 -266 -55 -4 -4 19 -41 51 -82 63 -80 108 -149 97 -149 -4 0 -82 47 -175
105 -92 58 -175 105 -184 105 -20 0 -369 -71 -375 -76 -2 -2 21 -36 52 -76 31
-40 54 -74 52 -76 -2 -2 -119 20 -260 49 l-257 52 -36 -19 c-41 -22 -262 -231
-262 -248 0 -6 55 -37 123 -68 l122 -58 -132 0 c-73 0 -190 -5 -260 -11 l-128
-11 -43 -42 c-40 -38 -142 -167 -142 -179 0 -2 50 -17 110 -32 61 -15 110 -29
110 -30 0 -2 -48 -29 -107 -61 -59 -33 -181 -107 -271 -166 -156 -103 -162
-109 -156 -135 9 -38 65 -186 74 -196 4 -4 88 35 186 89 281 151 284 153 277
141 -3 -7 -53 -72 -110 -144 -57 -73 -103 -139 -103 -147 0 -19 167 -86 215
-86 6 0 46 42 88 93 42 50 108 126 146 167 l70 75 -31 -85 c-30 -83 -87 -268
-88 -283 0 -4 86 -6 192 -5 l192 3 135 283 c74 156 137 279 139 273 3 -9 -67
-477 -84 -563 -4 -21 -1 -27 15 -30 19 -3 18 -7 -15 -58 -82 -127 -152 -293
-179 -420 -21 -99 -45 -338 -45 -443 0 -185 56 -372 168 -562 l59 -98 -38 -66
c-25 -42 -40 -82 -42 -111 -3 -25 -14 -76 -26 -114 -11 -37 -21 -92 -21 -122
l0 -54 60 0 c35 0 81 8 114 21 51 19 58 19 98 5 40 -13 135 -34 229 -50 32 -6
41 -14 65 -61 16 -30 35 -55 42 -55 17 0 63 31 115 77 36 32 39 33 125 33 l87
-1 52 -77 c73 -108 172 -219 243 -272 l61 -45 -5 -71 c-3 -50 0 -78 9 -91 12
-17 10 -25 -16 -65 -17 -25 -31 -59 -32 -74 -2 -28 -1 -29 56 -32 45 -2 70 3
115 23 l57 26 55 -19 c31 -11 88 -25 127 -32 l72 -13 27 -54 c16 -30 42 -70
59 -90 25 -30 36 -35 56 -30 37 9 78 54 106 114 l24 53 100 0 c55 0 132 5 170
12 60 9 78 9 128 -7 31 -9 66 -15 77 -13 24 4 30 45 15 105 -10 40 -9 48 20
104 39 79 105 275 119 360 l11 65 93 -46 c170 -85 167 -85 841 -84 332 0 666
5 764 12 160 10 179 14 239 42 35 16 66 30 67 30 2 0 -11 -33 -28 -72 -27 -63
-32 -86 -33 -163 0 -65 -7 -108 -23 -154 -12 -35 -24 -97 -26 -138 -4 -66 -8
-81 -42 -131 -68 -103 -123 -220 -123 -262 0 -34 4 -41 24 -46 34 -8 58 1 155
58 l83 49 92 -60 c50 -33 121 -72 158 -87 61 -25 67 -30 73 -63 15 -80 70
-171 103 -171 26 0 110 60 156 111 l44 49 109 0 c59 0 147 5 196 10 l87 10 95
-71 c54 -40 101 -69 109 -66 19 8 29 76 21 138 -7 49 -6 52 28 80 52 43 73 99
96 255 15 107 24 142 38 152 10 7 60 42 111 79 52 36 118 90 148 119 29 30 62
54 72 54 52 0 148 107 159 177 3 21 19 57 34 80 16 22 46 73 67 111 l38 70 44
-55 c25 -31 62 -65 82 -77 l37 -21 46 24 c25 13 60 41 79 61 25 28 44 39 77
44 24 3 81 18 125 32 l82 26 97 -22 c68 -14 101 -18 109 -10 14 14 -6 86 -44
150 -36 60 -36 60 -10 102 11 18 20 50 20 72 0 34 8 47 78 121 91 96 140 182
201 358 71 205 101 421 83 592 -15 134 -123 363 -329 698 l-91 147 67 0 c38 0
96 3 130 6 61 7 62 8 56 33 -6 25 -115 248 -157 321 l-20 35 32 -35 c18 -19
95 -111 172 -205 l140 -170 97 -6 c145 -10 291 -10 291 -1 0 5 -32 55 -70 111
-39 56 -62 97 -53 92 10 -6 70 -55 133 -110 63 -55 120 -101 127 -101 28 0
211 54 271 82 l67 30 -55 50 c-30 28 -117 102 -192 165 -76 64 -138 117 -138
118 0 2 64 -25 143 -61 78 -35 147 -64 153 -64 13 0 224 198 224 211 0 24
-200 102 -436 169 -98 28 -179 52 -180 53 -2 2 64 15 146 31 83 15 153 33 157
39 7 11 -23 39 -126 117 l-64 48 -104 7 c-57 4 -173 2 -259 -4 -87 -6 -159 -9
-161 -8 -2 2 42 35 97 72 55 38 100 72 100 76 0 9 -108 77 -178 113 -51 26
-56 26 -95 13 -41 -14 -43 -13 -128 29 -133 67 -160 71 -258 40 -102 -32 -110
-32 -81 0 21 21 22 27 10 34 -25 16 -77 11 -114 -11 -41 -24 -45 -19 -15 22
25 35 31 32 -120 54 -198 29 -219 27 -348 -32 -62 -28 -113 -49 -113 -47 0 2
12 23 26 45 14 23 22 45 17 49 -16 15 -197 50 -293 56 -80 6 -106 4 -140 -10
-41 -16 -42 -16 -35 1 19 46 18 49 -42 68 l-58 18 88 18 c185 37 363 111 480
200 66 50 150 145 196 221 l22 37 -71 143 -72 143 84 -82 c46 -46 88 -83 93
-83 9 0 115 199 115 214 0 8 -214 200 -295 265 -89 71 -84 72 88 9 196 -71
382 -167 536 -276 59 -43 64 -44 77 -28 17 24 44 144 44 196 0 32 -10 54 -48
108 -69 95 -69 96 -16 62 58 -37 78 -39 68 -7 -17 54 -122 251 -187 350 -63
95 -80 113 -142 153 -95 62 -345 182 -480 232 -104 38 -319 96 -449 122 -54
11 -69 21 -150 92 -147 130 -201 167 -304 209 -94 39 -429 158 -601 214 l-85
28 -249 -7 c-276 -8 -339 -18 -471 -79 -81 -38 -144 -78 -218 -140 l-48 -39
-64 51 -64 51 -68 -70 -69 -71 -85 84 c-87 85 -227 185 -335 238 -87 42 -245
57 -455 42z m275 -33 c-3 -5 -12 -10 -18 -10 -7 0 -28 -13 -47 -28 -25 -22
-33 -36 -33 -61 0 -18 6 -37 14 -42 8 -5 67 -9 132 -9 l117 0 22 45 c12 25 25
45 28 45 28 0 240 -152 300 -215 l35 -37 -74 37 -75 37 -62 -64 -62 -64 -67
33 c-53 27 -70 32 -81 22 -8 -6 -14 -15 -14 -19 0 -4 -13 -35 -28 -69 l-28
-63 -31 26 c-32 27 -53 33 -53 16 0 -6 7 -37 17 -70 9 -33 14 -62 11 -65 -2
-3 -51 11 -109 30 -57 19 -153 47 -214 61 -60 15 -113 31 -117 37 -7 11 -682
2 -923 -12 -71 -4 -131 -7 -132 -6 -4 3 167 129 247 183 42 27 121 75 176 106
87 49 116 59 224 81 67 14 124 25 126 25 1 0 -13 -25 -31 -56 -19 -31 -40 -73
-46 -92 -10 -31 -9 -37 7 -49 10 -7 25 -13 35 -13 25 0 131 36 180 61 84 42
108 67 128 133 18 61 19 61 62 67 78 11 391 10 384 -1z m130 -11 c30 -11 55
-25 55 -30 0 -5 -9 -28 -21 -51 l-21 -41 -105 6 c-58 3 -108 8 -110 11 -3 3
-3 15 1 28 5 22 106 95 133 97 7 1 37 -8 68 -20z m-590 -21 c-26 -89 -77 -134
-197 -174 -128 -44 -143 -30 -82 72 54 90 63 97 156 110 128 18 130 18 123 -8z
m2142 -25 c-9 -2 -23 -17 -31 -31 -22 -43 -56 -161 -50 -176 8 -21 187 -46
329 -46 l125 0 11 28 c8 20 7 44 -3 95 -8 37 -12 67 -9 67 11 0 337 -118 456
-165 128 -51 182 -87 299 -196 l70 -66 -204 25 -205 24 -48 54 -49 54 -78 0
c-46 0 -82 -5 -86 -11 -3 -6 11 -28 32 -50 l38 -39 -116 0 c-170 0 -498 -52
-620 -99 -33 -13 -34 -11 -8 39 22 43 14 58 -21 39 -30 -15 -34 -6 -48 109 -6
53 -15 100 -19 104 -4 4 -43 -11 -87 -34 l-79 -41 -41 48 c-22 27 -51 61 -65
77 l-25 29 -97 -66 c-54 -36 -101 -65 -106 -65 -5 0 -18 10 -30 23 l-22 23 28
25 c86 80 208 148 337 190 67 21 116 26 420 36 16 1 17 0 2 -4z m252 -18 l80
-26 16 -51 c8 -28 15 -68 15 -89 l0 -36 -91 -8 c-118 -9 -329 19 -329 44 1 9
13 48 28 86 l27 70 65 17 c87 22 96 22 189 -7z m-1098 -221 c52 -42 99 -78
106 -81 6 -2 52 23 102 56 50 34 94 61 99 61 7 0 62 -64 118 -138 9 -13 23 -9
88 28 43 23 78 40 80 39 3 -5 26 -180 26 -200 0 -13 -58 -56 -64 -47 -2 1 -22
31 -45 66 -27 40 -46 60 -54 55 -7 -3 -52 -33 -101 -66 l-88 -59 -73 72 -72
71 -84 -70 -84 -70 -67 66 -67 67 -63 -54 c-35 -29 -70 -59 -79 -67 -13 -11
-28 -2 -104 63 -71 59 -92 72 -100 61 -5 -7 -32 -41 -60 -75 l-49 -61 -26 20
c-14 10 -40 32 -59 48 l-35 29 28 63 c16 35 32 68 36 72 4 5 37 -6 73 -24 l65
-32 57 61 c31 34 63 62 69 62 7 0 49 -18 95 -40 45 -22 88 -40 95 -40 6 0 40
32 75 70 34 39 64 70 65 70 2 0 45 -34 97 -76z m1559 -159 l44 -45 -60 0 c-57
0 -62 2 -98 39 -42 43 -39 47 34 50 30 1 43 -7 80 -44z m-2894 -30 c-15 -19
-24 -40 -21 -45 7 -11 208 -14 218 -3 4 3 0 14 -9 24 -15 17 -13 17 43 4 32
-8 110 -32 173 -53 l115 -39 12 -43 c7 -24 11 -45 9 -47 -2 -2 -46 2 -97 9
-55 7 -191 12 -329 12 -260 -1 -307 -8 -536 -88 -55 -19 -132 -40 -170 -46
-198 -31 -574 -131 -741 -198 l-52 -21 30 62 c16 34 29 67 29 73 0 14 -78 24
-186 24 l-80 0 -65 -53 c-68 -57 -249 -248 -249 -264 0 -5 21 -19 46 -32 26
-12 43 -26 38 -30 -5 -5 -76 -50 -159 -101 -82 -51 -205 -131 -272 -176 -116
-79 -122 -82 -118 -56 2 15 7 97 11 182 l6 155 101 71 c56 39 139 94 185 123
45 29 82 60 82 68 0 17 -19 7 -177 -99 -57 -38 -103 -66 -103 -63 0 3 23 50
50 105 36 72 60 106 83 121 87 55 835 415 844 406 2 -2 -12 -15 -32 -28 -19
-13 -35 -30 -35 -37 0 -25 50 -79 94 -102 l43 -23 114 33 c119 34 235 76 257
93 6 5 12 31 12 58 l0 49 163 3 c89 1 283 4 431 5 l268 2 -26 -35z m-868 -21
l-3 -46 -60 -24 c-106 -44 -271 -87 -301 -80 -28 7 -94 66 -94 84 0 6 22 27
50 47 l49 36 168 13 c92 7 174 14 181 15 9 1 12 -12 10 -45z m1566 -104 c3 0
31 32 62 70 31 39 59 70 63 70 3 0 43 -32 88 -70 45 -39 84 -70 88 -70 4 0 41
30 83 66 l76 67 60 -67 c34 -37 65 -66 69 -66 5 0 43 29 85 65 41 36 78 65 82
65 3 0 35 -29 70 -65 35 -36 68 -65 73 -65 4 0 48 27 97 60 49 33 93 60 99 60
5 0 26 -27 47 -60 22 -33 42 -60 46 -60 4 0 30 14 56 30 27 17 52 30 55 30 5
0 -99 -229 -108 -238 -1 -2 -44 -12 -94 -22 -172 -35 -405 -125 -543 -210
l-50 -31 -122 119 c-100 98 -134 125 -198 156 -72 35 -222 75 -280 76 -17 0
-29 7 -32 18 -22 75 -56 203 -56 212 0 6 40 -23 89 -64 49 -42 92 -76 95 -76z
m-579 109 c13 -5 -1 -8 -44 -8 -56 -1 -62 1 -51 14 13 16 47 14 95 -6z m2890
-30 c3 -4 2 -25 -4 -46 l-11 -40 -107 -6 c-133 -9 -306 -9 -355 -1 -43 7 -48
25 -22 75 l15 31 239 -4 c131 -2 241 -6 245 -9z m-531 -39 c-24 -69 -13 -76
118 -83 87 -4 272 1 410 12 4 1 14 25 22 54 l15 53 188 -23 c103 -12 246 -35
317 -50 l128 -27 36 -53 c19 -29 33 -55 31 -58 -3 -2 -33 5 -68 15 -46 15 -92
20 -170 20 -118 0 -173 -12 -238 -53 -65 -41 -58 -59 40 -109 102 -53 97 -54
-164 -34 -145 11 -216 21 -281 40 -48 14 -153 39 -235 57 -130 27 -173 32
-348 36 -114 3 -232 0 -275 -5 -41 -6 -76 -10 -77 -8 -1 1 14 36 33 78 l36 76
72 20 c39 12 91 26 116 33 55 14 245 47 281 48 l27 1 -14 -40z m-2166 -125 c9
-7 -70 -132 -91 -143 -15 -7 -78 -15 -142 -19 l-115 -6 0 39 c0 38 3 41 77 91
l76 52 96 -6 c53 -3 97 -7 99 -8z m-263 -3 c-6 -5 -34 -25 -62 -46 -46 -33
-53 -42 -53 -71 0 -64 2 -65 109 -64 53 1 120 4 150 7 l53 7 48 80 47 80 69
-2 c100 -3 278 -30 359 -54 120 -36 162 -64 295 -195 69 -68 129 -124 132
-124 4 0 39 20 80 43 166 99 373 174 565 207 124 22 173 25 173 12 0 -5 -7
-31 -15 -58 -23 -77 -20 -127 12 -165 l27 -32 280 6 279 6 34 33 c44 43 94
118 87 130 -4 6 -30 21 -58 34 -28 13 -44 24 -36 24 39 0 336 -81 411 -113 38
-16 130 -138 361 -482 l108 -160 -15 -55 c-8 -30 -36 -109 -62 -174 l-48 -119
-60 -27 c-75 -34 -239 -82 -264 -78 -16 3 -9 18 50 111 67 105 69 110 69 173
0 36 -7 80 -14 99 l-15 35 -73 0 c-40 0 -120 -7 -178 -16 l-105 -16 -88 -125
c-48 -69 -87 -131 -87 -140 0 -8 5 -23 11 -35 9 -17 8 -19 -8 -15 -10 3 -61
11 -114 17 l-96 12 -84 107 c-106 134 -372 401 -509 511 -58 46 -166 124 -240
172 -123 81 -138 89 -170 83 -36 -7 -113 -48 -162 -87 l-28 -22 -52 25 c-67
31 -203 34 -256 6 -19 -10 -80 -31 -135 -47 -56 -16 -111 -32 -121 -36 -17 -7
-18 -4 -12 29 8 44 -14 68 -88 96 l-51 19 -95 -88 c-128 -118 -210 -205 -210
-223 0 -8 -6 -17 -12 -20 -7 -3 -164 -66 -348 -140 -521 -209 -724 -287 -754
-287 -103 0 -174 102 -195 282 -16 138 -24 312 -16 377 l7 62 127 75 c363 216
752 358 996 363 32 0 55 -3 50 -7z m3596 -48 c78 -23 195 -85 263 -140 55 -44
58 -48 41 -60 -31 -23 -125 -55 -209 -72 l-80 -16 -75 42 c-42 23 -133 72
-203 110 -70 37 -128 70 -128 74 0 12 91 59 133 67 72 15 200 12 258 -5z
m-1201 -72 c41 -11 114 -35 163 -52 l87 -32 -16 -28 c-9 -15 -31 -44 -48 -64
l-31 -38 -190 -10 c-233 -12 -364 -6 -383 20 -16 19 -11 121 8 184 11 37 11
37 73 41 120 8 261 -1 337 -21z m-3801 -78 c2 -2 -11 -34 -30 -71 -38 -75 -52
-86 -261 -193 -105 -54 -133 -59 -191 -32 l-38 17 79 88 c43 48 110 114 148
147 l68 59 111 -6 c60 -3 112 -7 114 -9z m1922 -249 l50 -26 -3 -52 -3 -52
-149 -112 c-116 -87 -157 -113 -180 -113 -47 0 -61 14 -61 60 0 39 6 46 141
181 77 76 144 139 148 139 3 0 29 -11 57 -25z m3646 -159 l27 -24 -53 -7 c-51
-7 -55 -6 -85 24 l-31 31 57 0 c45 0 62 -5 85 -24z m-2142 -291 c194 -193 350
-391 485 -615 59 -96 163 -310 156 -317 -2 -2 -19 3 -38 11 -32 14 -41 13
-133 -14 -55 -16 -100 -28 -102 -26 -1 1 33 24 77 51 44 26 80 51 80 55 0 4
-50 31 -112 59 l-111 53 -84 -30 -83 -31 -30 59 c-16 32 -34 61 -39 64 -5 4
-37 -1 -70 -10 -34 -10 -63 -15 -66 -13 -2 3 -9 68 -14 145 -16 219 -91 631
-137 749 -11 29 77 -47 221 -190z m-681 -133 c9 -2 29 24 51 67 21 39 42 71
47 71 21 0 315 -308 359 -375 86 -133 81 -114 45 -163 -26 -38 -32 -42 -41
-27 -68 113 -140 215 -149 212 -6 -1 -33 -49 -61 -105 -27 -56 -52 -102 -55
-101 -8 1 -152 167 -215 247 -31 40 -60 70 -65 67 -4 -3 -30 -42 -56 -87 l-48
-82 -44 92 c-24 51 -49 92 -55 92 -7 0 -56 -81 -110 -180 -55 -99 -102 -178
-106 -175 -5 2 -32 61 -62 130 -35 80 -59 124 -67 123 -11 -2 -197 -280 -216
-323 -15 -33 -146 189 -145 246 0 32 11 42 175 169 155 120 375 270 397 270 4
0 19 -12 32 -27 l24 -28 68 66 c37 37 75 69 83 71 10 3 45 -36 108 -121 51
-69 99 -127 106 -129z m-968 117 c-34 -135 -50 -278 -50 -471 -1 -105 -5 -168
-11 -168 -5 0 -30 10 -54 21 l-45 20 -67 -67 -68 -68 -68 26 c-131 50 -124 49
-192 15 -34 -18 -96 -58 -138 -89 -86 -65 -117 -75 -88 -30 71 108 314 407
493 606 105 116 303 309 309 302 2 -1 -8 -45 -21 -97z m2724 -85 c24 -72 7
-125 -93 -285 l-92 -147 -60 -21 c-93 -33 -96 -32 -164 62 -34 45 -70 101 -81
123 l-21 42 84 118 83 119 70 11 c38 6 113 12 166 13 l96 1 12 -36z m-2001
-259 c22 -47 46 -85 53 -85 7 0 25 21 40 48 15 26 38 64 51 86 l24 39 61 -79
c77 -101 210 -249 223 -249 5 0 30 45 55 100 24 55 48 103 52 107 4 4 39 -42
76 -102 38 -61 74 -110 82 -110 7 0 18 9 24 21 24 43 18 8 -24 -139 -32 -113
-53 -166 -80 -208 l-38 -56 -35 52 c-19 29 -38 48 -43 44 -4 -5 -44 -58 -90
-118 l-83 -108 -51 58 c-28 33 -67 77 -87 98 l-37 40 -74 -67 c-42 -37 -77
-67 -80 -67 -3 0 -33 34 -68 75 -35 41 -66 75 -71 75 -4 0 -33 -43 -65 -95
-32 -52 -61 -95 -64 -95 -4 0 -39 41 -78 90 -40 50 -76 90 -80 90 -4 0 -17
-15 -29 -33 -12 -17 -49 -58 -81 -90 l-58 -58 -70 82 -69 81 -16 126 c-9 70
-19 172 -23 227 l-6 100 40 -74 c36 -68 94 -141 111 -141 4 0 46 62 93 138 92
146 122 190 129 182 2 -3 28 -62 58 -132 35 -83 59 -128 69 -128 9 0 54 70
114 180 54 99 100 180 102 180 2 0 22 -38 43 -85z m1989 -436 l61 -116 -38
-62 c-21 -34 -40 -63 -42 -65 -2 -2 -5 24 -6 57 -1 54 -15 152 -39 277 -9 46
-7 44 64 -91z m-3997 -180 l58 -50 -66 -80 -67 -79 -33 32 c-18 17 -35 29 -39
26 -8 -8 9 -39 35 -62 l20 -19 -46 -58 c-25 -33 -56 -61 -67 -64 -12 -2 -64
-11 -116 -20 -95 -16 -330 -63 -427 -86 l-51 -12 -90 71 c-49 40 -93 72 -96
72 -20 0 4 -27 75 -85 80 -64 81 -65 54 -75 -14 -5 -30 -10 -34 -10 -5 0 -66
-18 -137 -41 -186 -59 -334 -119 -334 -135 0 -18 -6 -18 108 10 163 41 381 88
392 84 6 -2 -28 -81 -75 -176 -47 -96 -85 -178 -85 -183 0 -5 6 -9 13 -9 6 0
52 84 102 186 59 124 96 189 110 195 26 11 358 69 363 64 2 -2 -10 -28 -27
-59 -18 -31 -27 -57 -22 -60 5 -4 28 25 50 62 38 65 43 70 82 76 23 4 43 5 44
4 2 -2 -37 -79 -87 -173 -108 -204 -104 -195 -84 -195 10 0 35 39 71 110 30
61 57 110 59 110 6 0 -203 -432 -214 -443 -7 -8 -14 47 -26 233 -4 52 -8 109
-9 125 -2 17 -3 47 -4 69 l-1 38 -82 -103 c-166 -209 -297 -390 -394 -541
l-99 -156 -5 66 c-3 36 -10 67 -16 69 -8 3 -33 -59 -66 -159 l-55 -163 -89
-11 c-49 -6 -113 -14 -143 -17 l-54 -6 6 42 c4 23 27 170 51 327 58 372 63
414 45 408 -8 -3 -16 -24 -19 -50 -3 -31 -55 -150 -160 -372 l-155 -326 -168
0 -169 0 7 33 c4 17 25 84 47 147 22 63 47 137 56 164 9 26 34 68 54 91 41 46
46 58 24 53 -18 -4 -212 -220 -396 -440 -7 -9 -158 36 -182 54 -16 12 0 36
162 243 99 127 180 233 180 238 0 21 -25 0 -70 -59 -47 -63 -58 -71 -202 -148
-84 -45 -196 -105 -249 -134 l-96 -52 -32 80 c-17 43 -31 88 -31 98 0 40 446
310 613 372 77 29 62 47 -16 21 -56 -19 -58 -19 -124 -1 -38 10 -87 23 -111
30 l-42 11 46 61 c97 126 91 122 255 136 165 14 374 15 534 2 97 -7 141 -2
124 14 -3 3 -54 8 -114 11 -108 6 -112 8 -242 68 -73 33 -133 64 -133 69 0 16
177 186 222 212 l45 26 184 -39 c273 -58 469 -94 475 -88 13 13 -9 26 -55 32
-46 6 -54 12 -110 78 -33 39 -59 73 -57 74 2 3 335 73 345 73 4 0 88 -50 186
-111 99 -61 185 -113 192 -116 39 -15 -9 80 -97 193 l-48 61 96 21 c54 12 122
24 152 27 l55 7 90 -72 c50 -39 103 -86 118 -105 16 -19 33 -35 38 -35 17 0 9
24 -19 55 -31 33 -78 138 -68 153 6 10 133 30 226 35 30 2 61 4 69 5 7 1 40
-21 72 -49z m2564 10 l27 -41 -52 -53 c-40 -41 -64 -55 -108 -68 -31 -9 -58
-15 -59 -13 -2 2 159 215 163 216 1 0 14 -19 29 -41z m-606 -56 c35 -40 65
-73 68 -73 3 0 39 30 79 67 64 57 77 64 89 52 8 -8 45 -50 83 -94 l70 -80
-121 -30 -121 -31 -38 19 c-46 23 -76 17 -120 -22 l-32 -28 -70 20 c-39 11
-147 36 -241 56 l-170 36 86 87 87 87 73 -90 c40 -49 76 -89 80 -89 9 0 119
169 119 182 0 18 17 3 79 -69z m2172 47 c19 0 69 -12 111 -26 l77 -25 -21 -35
c-14 -23 -40 -45 -79 -65 -56 -28 -75 -49 -45 -49 7 0 49 19 92 43 124 68 133
70 231 62 79 -6 261 -40 271 -50 3 -2 -10 -27 -27 -55 -17 -28 -29 -55 -26
-60 3 -5 40 7 83 27 182 85 212 95 248 86 l33 -8 -84 -59 c-77 -53 -100 -76
-77 -76 5 0 50 29 100 65 51 36 102 65 114 65 12 0 59 -5 104 -12 l82 -12 -29
-42 c-16 -24 -29 -45 -29 -48 0 -13 30 -4 81 24 54 30 89 38 89 21 0 -19 -68
-67 -123 -86 -33 -11 -57 -25 -57 -33 0 -9 6 -12 18 -7 9 4 85 29 167 57 178
59 204 59 325 3 l82 -39 -28 -13 c-16 -7 -65 -29 -108 -48 -51 -23 -76 -39
-70 -45 6 -6 60 12 149 50 77 33 148 60 159 60 20 0 216 -99 216 -109 0 -3
-52 -41 -115 -84 -63 -43 -115 -83 -115 -89 0 -6 14 -8 38 -4 20 4 150 9 288
12 l252 6 86 -68 87 -69 -73 -17 c-140 -33 -260 -47 -316 -36 -47 10 -74 6
-61 -7 3 -2 57 -18 119 -34 236 -61 428 -120 528 -163 57 -25 104 -47 105 -49
1 -3 -41 -46 -93 -95 l-95 -91 -190 84 c-104 47 -202 94 -217 105 -16 11 -33
18 -39 16 -6 -2 60 -62 147 -133 166 -135 337 -282 341 -293 3 -7 -74 -42 -90
-42 -5 0 -45 33 -90 73 -118 104 -197 165 -421 326 -204 146 -226 160 -226
143 0 -5 92 -75 204 -156 211 -150 393 -295 459 -363 l38 -40 -81 -21 -80 -22
-142 118 c-78 64 -173 146 -210 181 -37 35 -71 62 -74 58 -3 -3 24 -41 61 -83
67 -79 198 -265 191 -271 -2 -2 -79 -1 -171 3 l-167 7 -211 254 c-116 139
-236 294 -268 343 -64 99 -136 183 -151 174 -5 -3 7 -23 26 -44 46 -51 139
-190 216 -325 70 -121 180 -343 180 -362 0 -10 -31 -13 -122 -12 l-123 0 -60
86 c-33 48 -83 112 -111 142 -28 31 -61 75 -73 99 -20 39 -41 56 -41 32 0 -6
14 -38 31 -71 29 -58 99 -254 99 -278 0 -15 -92 -14 -112 2 -8 6 -50 64 -93
127 -124 183 -239 332 -321 417 l-75 78 4 -53 c2 -29 1 -55 -3 -57 -4 -3 -29
19 -55 48 -305 335 -430 465 -433 450 -7 -51 -24 -124 -28 -120 -5 5 -43 148
-44 165 0 8 19 12 65 12 l64 0 108 -94 c59 -52 139 -126 178 -165 63 -64 95
-85 95 -62 0 8 -216 214 -290 276 -23 19 -39 35 -35 35 3 0 68 -7 143 -16 129
-14 138 -17 162 -43 14 -16 69 -81 124 -145 90 -106 116 -131 116 -108 0 5
-49 67 -109 138 -68 80 -104 130 -95 132 38 9 366 -53 607 -115 98 -25 181
-42 184 -39 12 12 -14 27 -105 61 -200 76 -597 157 -1096 225 l-89 13 61 34
c34 19 62 39 62 44 0 16 -17 10 -88 -31 -38 -22 -74 -40 -80 -40 -6 0 -21 22
-32 49 -24 55 -4 45 -310 150 -80 27 -138 50 -130 51 8 0 47 5 85 10 64 8 72
7 92 -12 l22 -21 42 67 c38 61 43 65 59 51 9 -8 32 -15 51 -15z m-2715 -147
c-2 -2 -20 0 -42 5 -37 8 -39 10 -51 62 l-11 55 53 -60 c30 -32 53 -61 51 -62z
m2961 -228 c206 -29 564 -88 560 -92 -2 -2 -73 6 -158 16 -85 11 -210 25 -279
31 -241 23 -244 24 -248 43 -4 21 -8 21 125 2z m-4567 -24 c17 -33 12 -38 -52
-45 -93 -11 -605 -103 -757 -136 -74 -16 -136 -28 -138 -26 -5 4 281 90 402
120 92 23 421 88 527 105 4 0 12 -8 18 -18z m2064 -27 c14 -5 16 -17 14 -67
l-3 -61 -150 -83 c-82 -46 -176 -93 -207 -105 -55 -20 -58 -22 -58 -54 0 -38
0 -38 53 -23 63 17 310 69 314 65 7 -7 -98 -135 -117 -141 -21 -7 -26 -20 -12
-29 4 -2 51 19 103 48 51 30 95 52 97 51 2 -1 11 -31 20 -65 22 -81 37 -87 46
-18 15 121 30 208 35 208 3 0 98 -52 211 -115 190 -106 259 -138 220 -101 -8
7 -105 64 -215 125 -110 62 -203 116 -208 120 -6 6 9 109 18 119 1 1 46 -18
100 -43 102 -47 115 -51 115 -35 0 5 -46 33 -102 61 -57 28 -105 53 -106 54
-2 2 -1 13 3 24 5 18 15 21 55 21 101 0 373 -78 520 -148 l75 -36 -180 -7
c-99 -4 -222 -7 -274 -8 l-93 -1 93 -61 c115 -75 263 -185 344 -253 135 -114
225 -199 225 -213 0 -8 27 -45 60 -82 33 -37 60 -71 60 -75 0 -11 -60 -96 -68
-96 -4 0 -86 70 -182 155 -96 85 -178 155 -182 155 -17 0 -5 -30 71 -164 43
-78 97 -179 120 -224 l42 -84 -25 -31 c-13 -18 -37 -47 -53 -66 l-29 -34 -166
122 c-91 66 -169 121 -172 121 -13 0 -3 -39 62 -239 l69 -208 -94 -41 c-51
-22 -95 -36 -98 -32 -3 5 -30 80 -60 167 -29 87 -61 179 -70 206 -9 26 -22 47
-28 47 -7 0 -40 -99 -76 -224 l-64 -224 -44 15 c-25 9 -47 21 -49 27 -2 6 -8
54 -12 105 -4 52 -12 96 -17 98 -6 2 -26 -28 -45 -66 l-33 -70 -61 31 c-34 17
-62 32 -64 33 -2 2 24 70 57 153 87 214 85 217 -48 65 -52 -60 -98 -108 -103
-108 -12 0 -137 108 -137 119 -1 5 54 84 121 175 173 236 182 250 175 258 -4
4 -20 -7 -35 -24 -25 -29 -58 -45 -430 -204 l-42 -18 -25 49 -25 50 52 30 c29
16 92 51 140 77 48 27 88 54 88 61 0 6 -2 12 -3 12 -2 0 -68 -36 -146 -80
l-142 -79 -21 47 c-11 26 -22 63 -24 82 -5 35 -3 36 113 121 109 79 286 189
305 189 4 0 8 5 8 10 0 22 -39 7 -134 -50 -84 -51 -339 -158 -462 -194 -20 -6
-23 -1 -34 76 -6 46 -10 111 -8 146 l3 63 90 41 c50 22 175 76 280 118 104 43
191 83 193 89 2 6 0 11 -5 11 -11 0 -362 -140 -447 -179 -38 -17 -71 -29 -73
-27 -9 8 -15 243 -7 249 18 11 256 60 475 98 206 35 235 38 365 34 77 -2 148
-7 158 -11z m135 -14 c18 -9 17 -16 -9 -147 -16 -76 -31 -164 -35 -196 -4 -31
-11 -59 -15 -62 -14 -9 -20 48 -27 233 l-6 182 37 0 c21 0 45 -4 55 -10z
m-2163 -35 c3 -9 -70 -44 -129 -62 -17 -5 -17 -4 -1 30 15 31 23 37 58 40 56
5 69 4 72 -8z m5141 -1 c-3 -3 -12 -4 -19 -1 -8 3 -5 6 6 6 11 1 17 -2 13 -5z
m56 -11 c-7 -2 -19 -2 -25 0 -7 3 -2 5 12 5 14 0 19 -2 13 -5z m-998 -131
c-66 -38 -147 -85 -180 -107 -240 -153 -388 -255 -477 -328 -40 -32 -48 -45
-48 -72 0 -48 32 -144 100 -299 33 -75 60 -139 60 -141 0 -1 -39 10 -87 25
-48 16 -91 26 -95 24 -13 -8 -9 -24 6 -24 30 0 105 -128 120 -206 7 -29 4 -32
-78 -82 -213 -130 -441 -358 -458 -456 -5 -33 16 -27 32 9 l15 34 109 -74
c107 -73 108 -75 82 -85 -15 -5 -33 -10 -40 -10 -14 0 -56 -70 -56 -93 0 -22
-47 -75 -81 -93 -16 -8 -152 -34 -302 -59 -149 -24 -291 -48 -314 -53 -46 -10
-100 -51 -231 -169 -114 -104 -167 -143 -194 -143 -37 0 -147 37 -455 151
-323 121 -451 155 -718 196 -153 23 -213 27 -405 27 -199 1 -238 -2 -339 -23
-66 -13 -131 -21 -156 -19 -55 7 -125 42 -173 89 -48 45 -59 82 -37 116 21 31
12 42 -15 18 -59 -53 10 -164 140 -224 48 -22 72 -26 182 -29 l128 -4 62 -67
c83 -88 207 -239 361 -441 196 -259 365 -413 552 -504 186 -92 264 -106 581
-106 136 0 245 -2 243 -4 -20 -20 -526 -29 -694 -13 -44 4 -105 9 -135 12
-133 12 -143 15 -205 62 -115 89 -197 170 -388 383 -384 430 -465 500 -687
599 -200 90 -324 178 -359 256 -37 83 -63 207 -68 327 -6 114 -5 118 22 163
66 113 319 426 487 603 64 68 71 72 83 55 28 -39 24 -3 -9 68 -102 221 -227
680 -197 727 12 20 543 19 686 -2 159 -22 253 -42 353 -72 l82 -25 0 -59 c0
-46 -4 -61 -17 -69 -15 -8 -18 -24 -18 -103 0 -51 6 -125 13 -165 11 -60 17
-72 34 -75 16 -2 24 -16 35 -57 7 -30 16 -57 19 -60 3 -3 28 7 56 22 28 16 51
27 52 25 1 -2 29 -58 61 -126 60 -126 61 -126 107 -107 14 5 22 -3 40 -39 12
-25 28 -46 34 -46 7 0 49 13 93 29 l81 28 -25 -33 c-14 -19 -36 -49 -50 -67
-14 -19 -25 -40 -24 -48 1 -18 152 -149 172 -149 9 0 17 6 20 13 3 8 12 5 30
-12 22 -20 24 -27 16 -49 -5 -14 -8 -30 -5 -36 2 -6 38 -29 80 -51 71 -37 78
-39 90 -23 11 15 15 16 34 3 11 -9 22 -28 24 -43 2 -21 13 -32 48 -49 76 -36
88 -37 101 -10 8 18 17 22 39 19 27 -4 28 -3 37 60 l8 63 68 -122 c38 -68 72
-123 77 -123 13 0 194 71 203 80 5 4 2 23 -6 42 l-15 35 43 21 43 21 -33 105
-33 105 103 -69 c56 -39 107 -70 113 -70 5 0 43 31 83 68 l73 69 -17 43 c-16
42 -16 45 3 65 26 27 25 35 -6 98 l-26 52 38 -36 c22 -19 54 -47 72 -62 l33
-27 69 35 68 34 -8 36 c-7 31 -6 35 9 30 13 -4 35 22 94 112 l76 117 -26 35
c-25 32 -25 36 -12 60 13 22 22 26 61 25 l45 -2 18 82 c9 44 23 121 30 171
l12 89 -34 30 c-36 32 -44 71 -15 80 63 18 328 69 492 95 231 36 241 37 350
39 l85 2 -120 -68z m-4937 -974 c-5 -44 -22 -91 -57 -158 -52 -102 -114 -259
-127 -325 l-8 -40 -7 50 c-4 28 -8 117 -8 198 l-1 148 53 48 c38 36 154 135
163 140 0 1 -3 -27 -8 -61z m157 -18 l59 -60 149 0 c145 0 149 -1 136 -19 -8
-10 -57 -74 -110 -142 -53 -68 -116 -153 -140 -189 l-44 -65 0 -105 c1 -150
45 -328 102 -415 21 -32 26 -50 24 -90 -5 -109 42 -189 283 -485 151 -186 338
-444 359 -495 32 -76 -127 -235 -337 -336 -96 -46 -101 -47 -129 -33 -33 18
-46 11 -30 -15 10 -16 7 -20 -24 -29 l-36 -11 -107 107 c-156 156 -249 305
-370 587 -108 253 -150 447 -157 737 -10 348 32 592 143 837 36 79 153 281
164 281 3 0 32 -27 65 -60z m6224 -43 l166 -12 57 -95 c81 -134 231 -431 262
-518 23 -65 26 -88 26 -211 0 -79 -7 -176 -15 -226 -15 -85 -79 -295 -115
-381 -21 -48 -69 -81 -166 -115 -69 -24 -302 -56 -359 -49 -35 4 -40 9 -43 33
-2 16 10 97 27 180 47 237 56 317 42 374 -15 57 -72 175 -127 259 -27 42 -48
93 -67 165 -31 114 -76 230 -92 236 -6 2 -16 -18 -23 -44 -7 -27 -27 -84 -45
-127 l-32 -79 -8 64 c-4 35 -18 105 -32 154 l-25 90 3 -535 2 -535 -26 -55
c-14 -31 -40 -72 -58 -92 -29 -34 -51 -87 -97 -233 -9 -27 -27 -71 -40 -97
-36 -71 -406 -438 -520 -515 -48 -33 -124 -61 -218 -79 -147 -29 -261 -2 -313
75 -25 38 -30 81 -10 81 16 0 53 38 45 46 -4 3 -20 -2 -37 -10 -16 -9 -36 -16
-44 -16 -16 0 -67 89 -67 118 0 29 36 69 75 82 39 13 47 30 14 30 -19 0 -21 4
-15 38 19 108 91 382 110 417 14 26 72 80 181 168 88 71 218 179 289 240 72
62 149 124 172 139 68 42 118 144 184 367 16 57 30 116 30 130 0 39 -70 178
-145 288 -36 52 -65 97 -65 99 0 2 139 4 309 4 l308 0 33 52 32 53 25 -49 25
-49 50 79 c28 43 55 82 60 85 5 3 32 2 60 -3 27 -5 125 -15 217 -21z m-6615
-264 c3 -98 10 -198 14 -223 5 -27 3 -89 -5 -155 -16 -126 -38 -179 -112 -270
-42 -53 -67 -71 -192 -140 -208 -114 -226 -128 -240 -178 -14 -51 -6 -177 15
-238 8 -24 13 -45 11 -47 -7 -7 -97 170 -126 249 -71 193 -83 321 -54 574 26
231 55 340 134 498 l46 92 175 5 c96 3 209 7 251 8 l76 2 7 -177z m4775 115
c24 -126 24 -151 -4 -224 -14 -38 -44 -108 -67 -156 l-41 -88 -101 -39 c-203
-79 -224 -79 -332 -8 -110 72 -133 90 -134 103 0 6 33 46 73 89 l72 77 37 -34
c93 -89 197 -89 280 -1 52 55 61 120 28 213 -10 30 -15 59 -11 63 17 17 127
57 158 57 30 0 32 -2 42 -52z m-304 -112 c15 -22 15 -27 1 -55 -27 -51 -70
-50 -98 3 -9 17 -6 24 23 48 41 34 54 35 74 4z m255 -748 c0 -39 -42 -178 -61
-201 -18 -22 -18 -22 -67 83 -28 58 -49 106 -47 108 2 2 72 15 168 31 4 0 7
-9 7 -21z m-3122 -74 c19 -4 21 -9 16 -32 -10 -40 -64 -171 -75 -177 -4 -3
-17 12 -28 34 -21 40 -71 168 -71 180 0 7 118 4 158 -5z m2142 -528 c19 -2 96
-8 170 -12 137 -7 212 -25 253 -61 25 -24 22 -34 -28 -83 l-45 -44 -31 37
c-17 20 -37 37 -44 37 -18 0 -35 -60 -35 -121 0 -34 -5 -50 -22 -66 -42 -37
-46 -36 -73 17 -41 81 -79 62 -100 -51 l-7 -36 -103 -6 c-461 -29 -1055 -6
-1297 49 l-67 15 -11 53 c-6 30 -17 62 -25 72 -14 18 -16 18 -42 -12 -16 -17
-32 -38 -38 -48 -9 -16 -13 -16 -52 6 -38 21 -42 27 -52 79 -6 30 -18 64 -26
75 -15 19 -15 19 -33 -2 -9 -12 -22 -30 -29 -40 -11 -18 -12 -18 -33 2 -18 18
-20 24 -9 48 23 51 105 85 234 96 86 8 1487 5 1545 -4z m-4198 -67 c10 -35 21
-93 24 -129 l7 -65 -22 27 c-11 14 -41 36 -66 48 -34 16 -45 28 -45 44 0 32
60 148 74 143 6 -2 19 -33 28 -68z m2525 -86 c4 -21 7 -69 8 -108 l0 -70 -32
-3 c-39 -4 -73 26 -73 63 0 26 68 155 82 155 4 0 11 -17 15 -37z m1979 -30
c14 -16 36 -53 50 -83 24 -54 25 -54 6 -80 -14 -18 -30 -26 -60 -28 l-42 -3 0
73 c0 72 9 148 17 148 2 0 15 -12 29 -27z m-4540 -47 c45 -39 90 -115 82 -138
-7 -18 -109 -48 -161 -48 -36 0 -37 1 -37 38 0 20 10 70 21 110 26 84 36 88
95 38z m2773 -49 c15 -86 14 -162 -2 -175 -16 -13 -55 -5 -79 16 -11 9 -18 29
-18 49 0 34 63 173 79 173 5 0 14 -28 20 -63z m1604 -70 c37 -91 38 -127 6
-145 -25 -15 -59 -12 -88 7 -11 7 -12 22 -2 91 22 148 40 158 84 47z m-3808
22 c20 -18 43 -45 51 -62 15 -27 14 -30 -8 -54 -34 -38 -118 -103 -132 -103
-14 0 -76 121 -76 148 0 31 81 98 122 101 4 1 23 -13 43 -30z m6682 -56 c17
-32 34 -72 37 -89 l7 -31 -88 19 c-48 10 -88 20 -90 21 -1 2 3 22 9 45 10 41
55 92 81 92 7 0 26 -26 44 -57z m-481 -94 c71 -34 74 -43 23 -95 -81 -83 -107
-86 -178 -15 -61 61 -75 86 -61 110 9 19 20 21 92 21 62 0 92 -5 124 -21z
m-5507 -419 c22 -10 57 -41 80 -67 40 -46 117 -180 109 -188 -5 -5 -69 12 -84
23 -5 4 -18 29 -29 57 -32 87 -89 120 -130 75 -26 -29 -35 -16 -35 56 0 62 1
64 25 64 14 0 43 -9 64 -20z m20 -124 c25 -27 53 -97 43 -108 -4 -4 -31 -16
-60 -27 -60 -24 -142 -28 -142 -8 0 32 101 167 125 167 6 0 22 -11 34 -24z
m1021 -38 c16 -35 32 -83 36 -107 l7 -44 -34 7 c-56 11 -149 50 -149 63 0 29
24 70 62 105 23 21 43 38 45 38 2 0 17 -28 33 -62z m-534 -30 c33 -37 67 -124
61 -150 -9 -34 -47 -87 -79 -111 l-28 -21 -22 22 c-41 38 -82 125 -74 156 7
27 96 126 114 126 5 0 17 -10 28 -22z m2697 -219 c15 -30 30 -78 34 -106 l6
-51 -42 -26 c-75 -48 -158 -86 -186 -86 -26 0 -27 2 -22 38 11 67 147 297 171
289 6 -1 23 -28 39 -58z m594 -110 c23 -48 43 -159 43 -243 0 -51 -2 -54 -58
-108 -32 -30 -73 -63 -92 -73 -34 -17 -34 -17 -57 9 -27 32 -64 145 -65 202
-1 86 140 274 197 260 6 -1 20 -22 32 -47z m268 -44 c116 -8 218 -15 227 -15
13 0 3 -19 -37 -72 -55 -73 -65 -100 -43 -114 22 -14 -44 -25 -193 -31 l-146
-6 -12 99 c-6 54 -14 111 -17 127 -4 15 -2 27 2 27 5 0 104 -7 219 -15z m335
-37 c11 -18 27 -55 35 -83 19 -61 29 -205 17 -224 -8 -11 -31 3 -108 61 -132
100 -129 96 -97 144 45 68 104 134 119 134 8 0 23 -15 34 -32z"/>
<path d="M3772 8551 c-20 -12 -11 -41 21 -64 35 -27 52 -13 43 37 -5 28 -12
36 -29 36 -12 0 -28 -4 -35 -9z m38 -32 c0 -18 -2 -19 -15 -9 -15 12 -12 30 6
30 5 0 9 -10 9 -21z"/>
<path d="M3400 7841 c-74 -26 -161 -59 -192 -74 -56 -25 -57 -27 -77 -90 -25
-83 -48 -193 -56 -279 -7 -68 -7 -68 26 -99 40 -37 94 -73 127 -83 25 -8 109
31 225 105 l59 37 112 226 c62 124 110 230 107 234 -9 12 -60 33 -131 53 -36
11 -65 19 -65 18 0 0 -61 -22 -135 -48z m202 5 c40 -13 84 -31 96 -41 2 -2
-45 -100 -103 -219 -118 -240 -103 -222 -267 -314 -82 -46 -101 -43 -185 25
-40 32 -43 38 -43 83 0 58 22 179 51 276 l21 71 92 37 c137 54 249 93 271 95
11 0 41 -6 67 -13z"/>
<path d="M6725 7682 c-90 -30 -135 -56 -135 -76 0 -13 245 -126 273 -126 21 0
27 34 15 78 -9 33 -65 152 -71 152 -1 0 -38 -13 -82 -28z m105 -64 c29 -61 38
-108 22 -108 -8 0 -214 89 -221 96 -10 9 19 26 85 49 38 14 73 25 77 25 4 0
21 -28 37 -62z"/>
<path d="M2720 5556 c0 -29 224 -608 238 -614 8 -2 80 16 160 41 81 25 180 55
220 67 39 11 72 25 72 30 0 33 -434 369 -567 438 -68 35 -123 53 -123 38z"/>
<path d="M3345 4696 c-66 -30 -168 -103 -156 -110 5 -3 33 10 63 30 68 46 115
70 156 79 17 3 32 11 32 16 0 16 -44 9 -95 -15z"/>
<path d="M3600 4698 c0 -7 40 -34 88 -60 48 -26 102 -58 121 -72 39 -29 51
-32 51 -13 0 13 -88 74 -181 126 -61 34 -79 38 -79 19z"/>
<path d="M5960 4659 c-98 -52 -139 -83 -126 -96 4 -4 17 -1 29 7 46 29 198
110 208 110 5 0 9 7 9 15 0 24 -18 18 -120 -36z"/>
<path d="M3060 4485 c0 -9 9 -15 21 -15 20 0 21 -3 14 -132 -3 -73 -8 -145
-11 -159 -4 -22 8 -42 71 -115 134 -156 164 -180 247 -199 40 -9 119 -19 174
-22 l102 -6 83 66 c46 36 95 77 109 92 l25 26 22 -27 c12 -16 25 -26 28 -23
21 22 45 127 45 196 -1 94 -16 218 -31 256 -12 28 -36 32 -32 6 2 -8 -29 -68
-67 -134 -38 -66 -71 -123 -73 -128 -1 -5 -68 34 -147 86 -212 138 -330 194
-490 232 -81 19 -90 19 -90 0z m258 -78 c65 -27 73 -33 67 -51 -44 -136 -42
-181 9 -232 43 -43 133 -72 174 -55 38 16 77 58 89 95 5 17 13 31 19 33 5 2
53 -31 107 -72 l97 -76 -27 -35 c-15 -20 -59 -62 -99 -95 -71 -57 -74 -59
-132 -59 -78 0 -202 17 -252 35 -39 14 -90 62 -209 200 l-53 60 6 126 c3 69 9
140 12 156 l6 31 57 -15 c31 -8 89 -29 129 -46z m224 -114 c26 -16 29 -22 23
-53 -9 -47 -12 -50 -42 -50 -26 0 -63 25 -63 42 0 20 30 78 40 78 7 0 25 -8
42 -17z"/>
<path d="M5755 4308 c-9 -91 -2 -261 11 -265 7 -2 11 41 12 139 1 79 3 152 5
162 1 10 -3 21 -10 23 -7 3 -14 -17 -18 -59z"/>
<path d="M4511 3468 c1 -16 68 -73 76 -64 7 7 -33 53 -59 67 -13 7 -18 6 -17
-3z"/>
<path d="M2310 2755 c-20 -24 -15 -122 7 -147 24 -28 74 -48 118 -48 46 0 45
16 -2 25 -74 14 -100 30 -107 68 -4 20 -4 47 0 61 5 22 12 26 41 26 46 0 39
24 -9 28 -22 2 -39 -3 -48 -13z"/>
<path d="M8612 3648 c3 -7 14 -14 26 -16 29 -4 36 -34 22 -93 -11 -45 -14 -48
-37 -43 -19 5 -24 3 -21 -7 2 -8 18 -15 35 -17 28 -3 32 1 44 35 17 52 17 116
0 136 -16 20 -75 24 -69 5z"/>
<path d="M8336 3241 c-3 -5 -1 -23 5 -40 9 -26 16 -32 37 -29 26 3 71 52 59
65 -4 3 -21 -6 -37 -22 l-30 -29 -6 32 c-6 31 -18 41 -28 23z"/>
<path d="M7470 2897 c0 -8 13 -20 29 -25 59 -21 64 -85 11 -142 -35 -38 -51
-38 -94 0 -24 22 -37 27 -42 19 -9 -15 46 -66 82 -75 35 -9 73 20 102 79 21
41 22 51 12 82 -12 36 -36 57 -77 70 -17 4 -23 2 -23 -8z"/>
<path d="M1285 4232 c-48 -30 -58 -48 -52 -89 10 -58 31 -68 23 -11 -7 47 -7
47 35 75 40 26 42 26 55 9 7 -11 15 -24 17 -30 2 -6 8 -8 12 -3 10 9 -27 61
-46 65 -8 1 -27 -6 -44 -16z"/>
<path d="M1342 3597 c-22 -26 -25 -67 -7 -87 17 -19 45 -27 45 -13 0 3 -7 14
-16 24 -22 25 -10 59 22 59 15 0 24 6 24 15 0 19 -53 21 -68 2z"/>
</g>
</svg>
