<?xml version="1.0" standalone="no"?>
<!DOCTYPE svg PUBLIC "-//W3C//DTD SVG 20010904//EN"
 "http://www.w3.org/TR/2001/REC-SVG-20010904/DTD/svg10.dtd">
<svg version="1.0" xmlns="http://www.w3.org/2000/svg"
 width="1000.000000pt" height="1000.000000pt" viewBox="0 0 1000.000000 1000.000000"
 preserveAspectRatio="xMidYMid meet">

<g transform="translate(0.000000,1000.000000) scale(0.100000,-0.100000)"
fill="#000000" stroke="none">
<path d="M3475 8864 c-279 -42 -535 -132 -718 -255 -96 -65 -253 -205 -336
-301 -102 -117 -172 -232 -223 -363 -36 -96 -41 -120 -41 -190 0 -44 1 -87 2
-95 2 -8 -5 -49 -14 -90 -12 -56 -18 -147 -21 -365 l-5 -290 -45 -97 c-63
-138 -87 -239 -82 -349 3 -69 9 -97 31 -138 38 -73 106 -159 222 -279 176
-183 332 -295 586 -421 l156 -78 -51 -28 c-246 -136 -494 -278 -666 -381
l-205 -122 -147 5 -148 6 -1 -49 c-3 -101 -5 -105 -87 -124 -78 -19 -112 -41
-112 -75 0 -35 64 -100 163 -166 51 -34 93 -62 95 -64 1 -1 -5 -37 -13 -81
-20 -104 -20 -173 0 -180 20 -8 143 23 220 54 58 24 66 24 245 20 124 -3 254
1 395 12 116 9 212 15 214 14 2 -2 -2 -68 -8 -147 -19 -248 -11 -497 23 -689
l13 -75 -109 -72 c-121 -80 -272 -219 -349 -320 -116 -152 -195 -373 -206
-572 -9 -164 25 -302 104 -428 19 -29 33 -54 31 -55 -2 -2 -28 -17 -58 -34
-91 -51 -139 -90 -154 -126 -8 -18 -29 -45 -48 -60 -37 -28 -148 -156 -191
-221 -44 -65 -41 -68 73 -63 55 2 100 1 100 -3 0 -3 -9 -27 -21 -53 -11 -26
-19 -56 -17 -66 3 -19 6 -19 63 8 81 38 214 86 221 79 3 -3 -4 -24 -16 -47
-12 -23 -19 -48 -16 -56 7 -18 46 -18 71 0 85 58 655 231 945 287 63 12 129
30 146 41 66 38 82 101 39 144 -14 14 -25 34 -25 46 0 67 230 186 450 233 64
14 66 13 170 -21 212 -71 427 -104 692 -104 l187 0 75 -93 c126 -157 232 -344
252 -447 10 -47 77 -116 147 -149 34 -17 116 -46 182 -65 114 -33 359 -114
399 -131 17 -8 19 -5 13 30 -3 20 -15 56 -26 78 -11 23 -19 43 -17 44 2 2 39
-5 82 -16 44 -10 115 -22 159 -26 44 -3 93 -8 109 -12 27 -5 28 -4 22 23 -4
16 -24 54 -44 84 -20 30 -38 58 -40 61 -2 4 16 3 40 -2 24 -4 85 -11 136 -15
108 -8 108 -9 60 86 -20 41 -62 96 -114 150 -45 47 -117 123 -161 170 l-80 85
14 59 c8 32 17 97 21 143 l7 85 120 34 c382 110 695 296 925 550 243 268 393
701 426 1232 4 61 7 112 8 112 1 0 59 5 129 10 174 13 240 32 295 87 79 79
113 197 81 280 -6 15 -14 57 -18 93 l-8 65 -26 -60 c-47 -106 -61 -129 -90
-145 -25 -14 -30 -13 -58 2 -29 17 -31 17 -58 -3 -34 -25 -60 -16 -68 22 l-6
29 -24 -32 c-38 -51 -64 -106 -84 -181 -21 -73 -54 -145 -74 -162 -8 -6 -15
-51 -19 -115 -35 -563 -186 -974 -466 -1264 -227 -235 -497 -389 -877 -502
-51 -15 -95 -25 -98 -23 -2 3 -7 30 -11 60 l-6 56 103 32 c286 90 551 261 790
509 171 176 270 316 363 513 98 208 160 447 168 649 4 123 -15 114 -24 -10
-18 -270 -110 -561 -248 -785 -112 -183 -312 -412 -382 -438 -82 -31 -223 -68
-338 -88 -94 -17 -143 -20 -265 -16 -203 6 -207 7 -234 110 -12 45 -37 120
-55 167 l-33 85 106 8 c414 29 699 158 923 415 186 214 342 488 373 655 12 63
-10 41 -34 -35 -72 -228 -210 -451 -404 -655 -194 -204 -449 -317 -796 -352
-167 -17 -179 -16 -199 21 -9 17 -43 71 -75 120 -32 49 -123 225 -202 391 -79
166 -198 406 -264 532 -66 127 -121 233 -121 236 0 3 82 9 183 12 196 6 330
28 408 66 24 12 141 73 259 135 202 107 215 115 218 144 3 24 -4 35 -34 60
l-37 31 27 31 c26 32 41 70 34 90 -2 7 -42 28 -88 47 -47 19 -87 36 -88 38 -2
2 1 19 6 37 6 18 13 57 16 86 l7 52 -93 0 c-54 -1 -125 -8 -167 -19 l-75 -18
-295 112 c-280 106 -589 230 -818 327 -87 36 -104 48 -113 72 -23 66 -4 188
52 321 84 202 126 382 149 640 16 187 7 315 -36 524 -129 622 -356 1117 -659
1439 -199 211 -477 308 -761 266z m295 -29 c151 -32 288 -103 407 -212 l53
-48 1 -103 c2 -108 17 -200 48 -292 21 -60 27 -91 37 -188 l7 -62 -29 15 c-44
23 -62 19 -113 -24 -97 -81 -139 -226 -148 -507 -6 -199 4 -318 40 -455 22
-83 22 -84 70 -108 34 -17 71 -25 132 -29 84 -5 85 -5 85 -31 0 -43 -54 -143
-99 -184 -23 -21 -61 -46 -84 -57 -147 -67 -790 -335 -877 -365 -97 -34 -111
-36 -181 -31 -43 4 -111 15 -152 26 -42 10 -95 22 -119 25 -227 34 -483 104
-590 162 -25 14 -70 47 -99 74 -29 27 -57 49 -61 49 -14 0 -9 -16 13 -44 15
-20 17 -26 6 -26 -8 0 -31 -11 -51 -25 -34 -23 -37 -23 -44 -7 -4 9 -7 60 -7
112 1 111 24 199 87 323 36 73 41 78 56 64 38 -35 190 -99 238 -100 l48 -2 10
40 c5 22 10 135 10 250 0 190 -3 222 -27 337 -32 150 -80 288 -114 329 -40 47
-96 37 -134 -24 l-21 -32 5 70 c10 125 99 330 206 472 112 149 323 333 483
421 268 148 685 234 908 187z m590 -982 c102 -115 251 -467 295 -700 17 -91
17 -92 -4 -135 -12 -25 -31 -54 -44 -66 l-22 -21 -1 122 c-3 287 -120 625
-295 851 -22 28 -22 28 -2 17 12 -6 44 -37 73 -68z m-126 -44 c27 -77 29 -302
3 -376 -19 -54 -58 -96 -81 -87 -21 8 -64 95 -81 161 -14 55 -14 68 0 137 19
94 38 148 71 204 24 41 27 43 47 29 12 -8 31 -38 41 -68z m-1864 -235 c33 -92
35 -107 35 -221 0 -100 -3 -125 -16 -139 -55 -54 -121 124 -123 329 -1 93 0
100 23 118 13 11 29 18 35 16 6 -2 27 -48 46 -103z m2039 -1181 c-27 -63 -72
-143 -81 -143 -10 0 -82 109 -77 115 6 5 161 73 171 74 4 1 -2 -20 -13 -46z
m-1908 -138 c24 -9 50 -17 57 -20 10 -4 8 -14 -7 -42 -43 -83 -45 -83 -74 -4
-15 40 -27 74 -27 77 0 6 3 5 51 -11z m1667 -249 l24 -13 -37 -32 c-21 -18
-39 -30 -41 -28 -9 9 9 87 20 87 6 -1 21 -7 34 -14z m-357 -20 c98 -16 255
-61 264 -76 8 -13 -145 -112 -251 -161 -212 -100 -392 -113 -604 -43 -91 29
-140 58 -140 81 0 10 -13 43 -28 75 l-28 56 86 26 c175 53 278 66 470 60 80
-2 184 -10 231 -18z m-831 -111 c-37 -38 -49 -42 -69 -22 -10 10 -3 16 36 34
67 30 72 28 33 -12z m79 -98 c1 -4 -22 4 -50 19 l-51 26 28 29 29 30 22 -48
c12 -26 22 -51 22 -56z m2102 -333 c117 -47 344 -135 503 -195 l290 -110 89
21 c49 11 118 20 154 20 l66 0 -6 -56 c-3 -30 -13 -67 -22 -81 -20 -29 -21
-27 35 -52 25 -11 37 -20 28 -20 -39 -2 -240 -77 -330 -123 l-97 -50 30 -48
c16 -26 29 -52 29 -58 0 -18 -36 -32 -84 -32 -25 0 -46 -4 -46 -9 0 -12 -68
-37 -150 -56 -155 -34 -454 -42 -742 -19 -87 7 -115 -6 -105 -49 11 -40 143
-207 197 -248 92 -69 236 -123 402 -149 l78 -13 61 -116 c71 -133 300 -613
296 -618 -2 -1 -21 15 -42 37 -22 22 -43 40 -47 40 -22 0 0 -31 85 -119 55
-58 111 -130 140 -178 48 -83 147 -314 147 -346 0 -62 -307 -566 -450 -737
-110 -132 -158 -166 -219 -155 -60 11 -190 77 -317 163 -170 114 -271 226
-360 400 -32 62 -34 72 -34 167 0 55 7 132 15 170 38 181 135 411 238 565 31
46 54 87 51 92 -8 13 -23 0 -54 -50 l-28 -45 -7 59 c-31 266 -164 637 -356
994 -123 229 -312 501 -443 637 -51 55 -74 84 -65 87 8 3 43 12 79 21 270 67
512 171 685 293 39 28 75 51 81 51 6 1 107 -38 225 -85z m-2327 -23 c22 -35
337 -188 434 -211 28 -6 52 -14 52 -17 0 -3 -23 -31 -52 -62 -92 -100 -247
-362 -303 -514 -10 -26 -19 -46 -21 -44 -8 8 69 355 111 497 24 84 42 156 40
158 -8 8 -51 -98 -79 -189 -24 -83 -76 -303 -76 -330 -1 -25 -299 -216 -439
-282 l-85 -40 -160 5 c-153 5 -163 4 -226 -20 -50 -19 -190 -61 -207 -62 -8 0
-1 74 12 143 8 43 15 87 15 96 0 11 -28 36 -72 66 -103 67 -156 112 -173 145
-8 16 -15 31 -15 34 0 11 56 34 110 46 97 21 90 14 90 91 l0 69 141 0 142 0
111 68 c226 139 615 361 633 362 6 0 14 -4 17 -9z m941 -116 c120 -32 268
-133 386 -264 150 -168 336 -452 467 -716 173 -347 268 -630 302 -897 l9 -78
-34 -59 c-51 -87 -89 -174 -130 -302 -107 -331 -80 -529 112 -811 l94 -138
-170 0 c-444 0 -829 111 -1171 337 -135 90 -335 283 -417 404 -159 233 -261
510 -310 844 -20 141 -24 563 -6 710 26 208 223 614 381 786 104 114 265 198
377 199 28 0 78 -7 110 -15z m-770 -2155 c42 -112 120 -264 185 -361 l57 -85
-40 -23 c-112 -65 -252 -258 -322 -446 -34 -91 -86 -183 -122 -217 -41 -38
-131 -62 -217 -55 -68 4 -71 6 -108 48 -49 57 -110 175 -139 269 -34 109 -32
294 5 435 29 112 103 271 166 355 91 123 259 271 420 372 l25 15 31 -116 c16
-64 43 -150 59 -191z m-555 -1186 c25 -25 68 -60 95 -79 28 -19 75 -57 105
-84 30 -28 59 -51 63 -51 4 0 -2 -13 -13 -29 l-22 -28 -36 18 c-46 24 -58 24
-89 -1 l-26 -20 -43 40 c-44 40 -44 40 -127 40 l-83 0 -38 39 c-52 53 -46 76
36 129 63 40 118 71 128 72 3 0 26 -21 50 -46z m-206 -192 c18 -21 18 -22 -17
-64 -19 -24 -49 -66 -66 -94 -24 -39 -39 -53 -62 -58 -46 -9 -159 -7 -159 3 0
15 104 145 167 209 l64 63 27 -19 c15 -11 35 -29 46 -40z m3934 -7 c78 -8 108
-18 133 -48 24 -29 24 -29 -11 -49 -32 -18 -86 -97 -95 -140 l-6 -27 -54 35
c-30 18 -63 34 -74 34 -46 0 -120 -97 -121 -158 0 -20 -4 -19 -55 23 -84 68
-142 60 -186 -27 l-20 -40 -24 32 c-13 18 -33 39 -44 47 -44 30 -12 118 63
171 95 69 342 165 401 157 17 -2 59 -7 93 -10z m-3735 -34 c15 -10 35 -28 43
-40 15 -21 14 -24 -28 -69 -24 -26 -50 -56 -58 -68 -9 -12 -45 -31 -85 -44
-38 -13 -105 -38 -148 -56 -75 -31 -78 -32 -71 -11 16 53 37 93 88 170 89 133
90 134 181 136 33 1 59 -5 78 -18z m215 -61 c35 -25 102 -117 91 -123 -2 -1
-65 -22 -139 -47 -74 -24 -159 -57 -189 -72 -66 -35 -85 -36 -75 -5 16 51 63
117 140 195 93 93 109 98 172 52z m3780 -85 c39 -41 82 -99 97 -128 l26 -52
-36 -3 c-19 -2 -84 4 -142 13 -91 13 -112 20 -135 42 -16 15 -28 34 -28 43 0
27 50 119 77 140 44 34 65 26 141 -55z m-280 -84 c73 -49 173 -154 201 -210
l22 -43 -28 6 c-15 3 -61 8 -100 11 -106 10 -255 50 -274 74 -42 52 51 226
109 206 7 -3 38 -22 70 -44z m-312 -60 c41 -25 144 -142 171 -194 30 -60 39
-91 22 -84 -8 3 -84 29 -170 56 -174 57 -179 61 -158 136 11 41 67 105 91 105
7 0 27 -9 44 -19z"/>
<path d="M3927 7969 c-56 -125 -115 -338 -101 -361 12 -19 23 -4 29 40 9 64
40 170 81 271 22 56 31 88 24 95 -6 6 -18 -9 -33 -45z"/>
<path d="M2438 7835 c-3 -3 5 -34 17 -68 13 -34 30 -97 40 -139 16 -72 26 -91
39 -70 6 10 -19 118 -45 199 -19 58 -39 89 -51 78z"/>
<path d="M3368 6333 c-53 -63 -79 -123 -54 -123 9 0 16 4 16 9 0 5 16 32 35
60 19 28 35 55 35 61 0 15 -15 12 -32 -7z"/>
<path d="M2940 6317 c0 -17 48 -87 60 -87 15 0 12 9 -17 56 -28 44 -43 55 -43
31z"/>
<path d="M7647 6563 c-54 -79 -71 -189 -46 -303 14 -66 1 -122 -45 -193 -19
-29 -37 -71 -41 -94 -4 -24 -9 -43 -12 -43 -22 0 -41 25 -47 62 -10 61 -28
118 -38 118 -4 0 -8 -5 -8 -12 0 -6 -18 -41 -40 -77 -30 -51 -42 -83 -50 -140
-6 -41 -12 -77 -14 -79 -9 -8 -57 32 -85 70 l-29 40 -17 -36 c-14 -29 -15 -41
-5 -70 6 -19 17 -40 25 -46 8 -6 22 -34 31 -62 39 -118 -30 -401 -132 -539
-20 -27 -33 -49 -29 -49 14 0 73 47 160 128 l90 83 7 -43 c4 -24 4 -79 1 -123
l-5 -80 37 48 c42 52 55 58 55 24 0 -13 6 -32 14 -43 14 -19 15 -18 43 8 l29
28 22 -45 c12 -25 22 -62 23 -83 0 -20 3 -54 7 -74 l7 -37 89 76 c73 63 93 86
119 140 37 81 46 200 27 368 l-12 112 28 72 c15 39 31 68 35 64 3 -5 14 -33
24 -63 9 -30 24 -70 33 -88 l17 -32 31 37 31 36 21 -21 c12 -12 32 -24 44 -27
51 -11 139 -22 131 -15 -4 3 -31 23 -60 44 -94 67 -156 168 -173 283 -22 150
-42 410 -37 469 l6 62 -29 -11 c-37 -14 -52 -1 -54 42 l-1 30 -35 -34 c-20
-19 -43 -35 -53 -35 -25 0 -50 57 -56 130 l-6 65 -28 -42z"/>
</g>
</svg>
