<?xml version="1.0" standalone="no"?>
<!DOCTYPE svg PUBLIC "-//W3C//DTD SVG 20010904//EN"
 "http://www.w3.org/TR/2001/REC-SVG-20010904/DTD/svg10.dtd">
<svg version="1.0" xmlns="http://www.w3.org/2000/svg"
 width="1000.000000pt" height="1000.000000pt" viewBox="0 0 1000.000000 1000.000000"
 preserveAspectRatio="xMidYMid meet">

<g transform="translate(0.000000,1000.000000) scale(0.100000,-0.100000)"
fill="#000000" stroke="none">
<path d="M5055 8853 c-16 -8 -39 -23 -50 -33 -44 -38 -684 -423 -812 -489 -22
-11 -106 -31 -189 -46 -178 -31 -353 -75 -448 -113 -58 -23 -82 -40 -156 -117
-182 -187 -313 -352 -331 -418 -16 -60 -4 -165 31 -269 17 -49 30 -110 30
-136 0 -26 9 -79 19 -118 l18 -70 -74 -63 c-139 -118 -223 -241 -223 -327 0
-59 36 -190 66 -243 38 -66 111 -131 194 -174 83 -43 101 -44 161 -17 l44 20
30 -34 c63 -71 202 -157 277 -171 26 -5 63 2 144 28 150 47 283 81 290 74 23
-23 33 -200 12 -214 -7 -4 -67 -8 -134 -8 -98 -1 -126 -4 -147 -18 -15 -10
-70 -66 -123 -126 -95 -108 -97 -109 -173 -134 -101 -34 -238 -59 -512 -96
-124 -17 -248 -38 -276 -46 -63 -19 -71 -25 -379 -316 -137 -129 -339 -318
-449 -420 l-199 -185 -66 -164 c-37 -91 -82 -194 -100 -230 -37 -69 -41 -108
-23 -186 27 -114 136 -209 263 -229 25 -4 55 -17 68 -29 22 -20 24 -20 36 -3
7 9 25 17 40 17 32 0 66 16 66 32 0 6 -11 26 -25 44 -14 18 -25 42 -25 53 0
27 67 230 85 258 8 12 24 27 34 33 17 9 20 5 30 -40 6 -28 21 -69 32 -92 l21
-42 20 24 c10 14 69 80 131 148 93 102 119 124 152 132 90 23 108 40 447 425
58 66 125 139 149 162 48 46 207 126 459 231 80 33 161 67 181 76 l36 15 -91
-182 c-130 -258 -196 -466 -237 -747 -18 -124 -21 -177 -17 -365 l5 -220 -171
-194 c-269 -305 -298 -339 -390 -461 -96 -128 -138 -219 -158 -345 -9 -56 -9
-90 0 -135 12 -66 88 -231 151 -328 23 -34 41 -73 41 -85 -1 -40 -40 -110 -93
-167 -29 -30 -66 -71 -83 -91 -27 -31 -38 -37 -87 -42 -70 -7 -143 -40 -223
-100 -53 -41 -114 -110 -114 -130 0 -4 39 -7 86 -7 78 0 85 -2 79 -17 -12 -28
-29 -112 -24 -117 3 -3 23 1 44 8 40 14 215 33 215 23 0 -2 -11 -30 -25 -61
-25 -57 -32 -96 -17 -96 19 0 245 81 330 118 52 23 128 51 169 62 86 23 211
74 316 127 39 19 129 57 199 84 155 58 171 69 199 125 21 45 21 46 4 148 -20
123 -11 190 33 270 36 64 141 137 329 232 l133 66 62 -26 c98 -38 231 -74 376
-101 73 -14 142 -25 152 -25 13 0 27 -17 44 -50 46 -92 135 -213 264 -360 l39
-45 -48 -90 c-48 -91 -79 -178 -79 -223 0 -13 -14 -40 -31 -60 -46 -52 -89
-150 -104 -239 -7 -43 -12 -80 -9 -82 2 -2 48 17 102 42 53 26 124 56 157 67
54 19 66 20 123 9 l62 -13 0 -45 c0 -51 25 -113 66 -167 51 -67 52 -67 176 59
l113 113 96 9 96 10 36 -60 c20 -33 50 -76 67 -95 l30 -35 26 30 c38 44 104
146 110 170 3 11 15 25 27 30 63 28 83 160 48 321 -26 122 -81 441 -81 469 0
19 10 22 122 33 544 55 1001 314 1280 727 193 286 303 644 333 1087 6 89 5 96
-12 95 -12 -1 -24 11 -37 36 -13 28 -21 36 -29 28 -18 -18 -45 -13 -52 10 l-7
21 -19 -21 c-10 -11 -19 -31 -19 -45 0 -14 -9 -73 -20 -131 -50 -257 -161
-473 -333 -649 -135 -137 -270 -209 -452 -241 -177 -31 -428 -11 -642 51 l-52
15 -6 57 c-11 93 -24 144 -51 199 l-25 53 20 71 c11 39 22 73 23 75 6 5 111
-21 132 -33 18 -10 20 -21 17 -114 -3 -115 -15 -222 -31 -263 -15 -41 -13 -46
23 -46 50 0 133 46 200 112 57 56 62 58 90 48 16 -5 49 -10 73 -10 40 0 46 4
85 53 71 88 119 169 119 198 0 16 -9 52 -19 81 -12 34 -21 93 -25 166 -13 259
-142 708 -296 1029 -70 147 -133 246 -203 321 -60 64 -155 113 -452 232 -308
124 -425 187 -482 259 -59 74 -115 131 -160 162 -37 26 -56 31 -155 40 -163
15 -155 12 -166 66 -24 111 -44 321 -40 417 l3 101 87 155 c158 286 203 389
228 529 16 88 3 132 -82 287 -39 71 -103 190 -143 264 -39 74 -98 179 -130
233 l-58 98 19 41 c42 94 229 328 346 433 87 78 97 125 46 224 -53 104 -144
146 -223 104z m35 -18 c0 -19 -47 -91 -90 -138 -72 -79 -151 -139 -324 -247
l-148 -93 33 -14 c62 -26 93 -73 49 -73 -27 0 -139 -46 -315 -129 -113 -52
-181 -77 -275 -100 -129 -31 -388 -81 -419 -81 -30 0 -136 -58 -184 -100 -26
-23 -70 -82 -106 -143 -34 -57 -74 -116 -90 -131 -16 -15 -38 -36 -50 -46 -20
-19 -41 -77 -41 -117 0 -12 -4 -24 -9 -27 -15 -10 -35 93 -35 176 0 73 3 81
37 130 46 67 173 215 282 330 117 123 195 155 528 218 311 59 361 70 371 81 8
9 1 10 -29 6 -38 -6 -35 -4 40 40 111 63 584 352 675 412 69 45 100 59 100 46z
m-601 -1335 c64 -209 92 -332 86 -372 -6 -34 -12 -41 -60 -62 -41 -20 -142
-46 -174 -46 -3 0 -5 49 -3 110 4 124 -17 259 -49 323 -11 21 -19 40 -17 41 2
1 39 33 82 70 94 81 91 83 135 -64z m-210 -80 c12 -27 22 -59 23 -72 3 -36
-22 -97 -43 -109 -44 -23 -100 49 -98 128 0 32 6 43 41 71 22 17 44 32 48 32
4 0 17 -22 29 -50z m-532 -12 c-3 -8 -6 -5 -6 6 -1 11 2 17 5 13 3 -3 4 -12 1
-19z m148 -328 c9 -25 19 -51 22 -57 3 -8 -3 -13 -13 -13 -12 0 -30 18 -48 45
-27 44 -28 46 -10 66 21 23 25 19 49 -41z m-685 -111 c-26 -76 -71 -153 -141
-240 -59 -73 -108 -170 -116 -229 -3 -22 -9 -40 -14 -40 -12 0 -39 97 -46 166
-5 52 -2 67 21 115 34 69 115 160 226 255 97 83 106 80 70 -27z m1715 -1059
c-3 -5 -20 -19 -38 -30 -32 -22 -32 -22 3 9 37 32 45 37 35 21z m-947 -25 c12
-10 -151 -127 -315 -227 -264 -160 -408 -217 -648 -258 -228 -38 -270 -54
-380 -148 -79 -68 -129 -124 -270 -302 -139 -175 -198 -235 -269 -271 -92 -47
-223 -137 -294 -204 -71 -66 -167 -185 -231 -285 -22 -36 -41 -62 -41 -59 0 4
18 42 39 85 22 44 61 135 87 204 26 69 52 131 58 139 6 8 126 120 266 250 140
130 351 327 468 438 177 167 224 206 267 222 29 11 139 31 246 46 349 47 480
73 592 116 53 20 74 39 174 162 77 95 101 109 183 101 36 -4 66 -8 68 -9z
m1324 -33 c31 -19 104 -92 183 -183 17 -19 41 -42 55 -52 45 -31 -103 44 -158
81 -30 19 -65 52 -78 72 -28 42 -65 59 -180 85 -40 9 -79 22 -89 28 -13 10 9
11 108 2 95 -9 132 -17 159 -33z m-1011 -377 c112 -39 199 -137 294 -330 126
-255 195 -569 245 -1105 22 -247 41 -395 70 -571 20 -115 20 -116 0 -195 -53
-214 -53 -659 -1 -797 6 -15 7 -27 3 -27 -29 0 -215 35 -297 56 -411 104 -811
369 -1012 669 -87 129 -157 301 -190 462 -14 71 -18 138 -18 348 0 227 3 275
22 376 57 295 157 559 312 820 75 129 208 244 331 289 67 24 179 26 241 5z
m1579 -643 l85 -58 3 -174 c3 -111 -3 -252 -14 -388 l-18 -213 -19 53 c-84
232 -284 702 -378 890 -22 43 -39 80 -39 82 0 13 305 -142 380 -192z m134 -40
c34 -67 72 -202 92 -329 18 -116 16 -330 -6 -503 -13 -111 -18 -130 -32 -130
-6 0 -22 -9 -34 -21 l-22 -21 -16 25 c-41 62 -45 152 -20 416 10 112 15 238
12 389 -2 122 -2 222 -1 222 2 0 14 -22 27 -48z m-3674 -335 c32 -16 70 -73
70 -106 0 -19 -27 -55 -98 -131 -53 -58 -112 -123 -129 -145 -27 -33 -34 -37
-43 -25 -17 25 -40 111 -40 150 0 54 28 150 55 192 43 65 127 94 185 65z
m-518 -138 c50 -25 141 -117 158 -159 11 -26 8 -42 -18 -127 -17 -54 -43 -140
-58 -190 -15 -51 -31 -93 -35 -93 -16 0 -91 98 -119 155 -42 88 -66 219 -52
288 14 70 50 147 68 147 8 0 34 -10 56 -21z m263 -28 c-3 -6 -27 -13 -53 -16
-26 -3 -60 -9 -77 -12 -17 -3 -26 -2 -22 3 5 5 36 14 70 20 82 15 89 16 82 5z
m-401 -236 c8 -69 36 -146 80 -215 19 -30 33 -56 31 -58 -2 -2 -28 3 -57 12
-59 17 -124 67 -169 129 -37 51 -37 86 -1 119 27 26 91 68 103 68 3 0 9 -25
13 -55z m274 -253 c13 -20 12 -22 -13 -28 -33 -8 -38 -3 -29 30 7 30 21 30 42
-2z m4160 -6 c15 -8 49 -37 76 -65 l50 -51 -29 -97 c-15 -54 -38 -138 -50
-187 l-22 -90 -28 47 c-42 73 -73 174 -85 276 -17 155 10 208 88 167z m531
-31 c62 -53 77 -178 35 -299 -32 -91 -195 -236 -267 -236 -17 0 -19 5 -13 33
15 70 26 208 26 333 0 122 1 132 23 152 52 49 147 57 196 17z m280 -80 c34
-90 30 -101 -73 -238 l-51 -69 -53 5 c-29 2 -57 8 -62 13 -6 6 -3 28 10 61 10
28 22 73 26 101 5 43 13 57 58 100 45 44 98 80 118 82 4 0 16 -25 27 -55z
m-3723 -303 c-74 -147 -90 -189 -120 -311 -37 -153 -70 -233 -133 -326 -98
-144 -137 -256 -137 -392 l0 -92 -19 32 c-43 69 -108 217 -117 268 -16 82 0
178 47 299 27 68 144 229 270 372 37 43 117 133 178 202 60 69 111 123 113
121 2 -1 -35 -79 -82 -173z m4628 12 c-87 -260 -212 -463 -403 -655 -234 -233
-500 -378 -837 -454 -123 -28 -322 -52 -349 -42 -16 7 -17 17 -11 120 3 61 9
130 12 152 l6 40 181 0 c212 1 322 17 497 75 180 59 327 139 475 260 177 145
350 372 436 572 37 87 34 53 -7 -68z m-1337 -321 c-3 -10 -5 -2 -5 17 0 19 2
27 5 18 2 -10 2 -26 0 -35z m10 -60 c-3 -10 -5 -4 -5 12 0 17 2 24 5 18 2 -7
2 -21 0 -30z m10 -55 c-3 -7 -5 -2 -5 12 0 14 2 19 5 13 2 -7 2 -19 0 -25z
m47 -123 c16 -26 16 -28 1 -10 -22 26 -45 79 -44 102 0 10 6 0 13 -22 7 -22
21 -54 30 -70z m-1549 -473 c-3 -3 -11 0 -18 7 -9 10 -8 11 6 5 10 -3 15 -9
12 -12z m-2073 -339 c25 -14 59 -39 75 -56 25 -28 24 -27 -18 6 -25 20 -70 48
-100 62 -30 14 -43 22 -29 19 14 -3 46 -18 72 -31z m-365 -220 c-35 -25 -122
-129 -134 -160 -6 -15 -163 -18 -163 -4 0 5 28 35 62 66 73 66 185 125 237
125 l36 0 -38 -27z m171 -37 l56 -54 -60 -74 c-32 -41 -63 -82 -69 -92 -8 -13
-35 -18 -120 -25 -60 -5 -119 -13 -129 -17 -17 -6 -18 -4 -12 22 32 129 171
294 248 294 22 0 44 -14 86 -54z m202 -63 c33 -37 62 -95 74 -144 6 -26 2 -28
-102 -72 -173 -75 -302 -118 -302 -103 0 28 81 173 130 233 52 64 123 122 151
123 10 0 32 -17 49 -37z m2269 -98 c29 -14 63 -79 74 -141 6 -32 6 -32 -71
-59 -42 -15 -107 -43 -144 -61 -65 -33 -68 -33 -68 -13 0 34 30 139 51 181 10
20 33 53 50 73 34 39 63 44 108 20z m953 -63 c24 -27 49 -67 56 -88 10 -34 9
-44 -12 -90 -24 -53 -95 -154 -107 -154 -10 0 -96 131 -114 174 -30 71 -14
138 48 203 28 30 31 31 57 18 15 -8 47 -36 72 -63z m-523 33 c16 -14 51 -68
77 -119 l48 -93 -109 -107 c-62 -62 -113 -105 -121 -102 -7 3 -29 29 -49 59
-59 89 -58 197 2 288 24 36 96 99 114 99 4 0 21 -11 38 -25z"/>
</g>
</svg>
