<?xml version="1.0" standalone="no"?>
<!DOCTYPE svg PUBLIC "-//W3C//DTD SVG 20010904//EN"
 "http://www.w3.org/TR/2001/REC-SVG-20010904/DTD/svg10.dtd">
<svg version="1.0" xmlns="http://www.w3.org/2000/svg"
 width="1000.000000pt" height="1000.000000pt" viewBox="0 0 1000.000000 1000.000000"
 preserveAspectRatio="xMidYMid meet">

<g transform="translate(0.000000,1000.000000) scale(0.100000,-0.100000)"
fill="#000000" stroke="none">
<path d="M3087 8419 c-48 -25 -181 -151 -257 -243 l-58 -69 -65 2 c-75 3 -94
-5 -159 -65 -135 -126 -516 -312 -818 -399 -177 -52 -203 -62 -270 -106 -41
-28 -72 -60 -103 -107 -75 -113 -276 -333 -579 -635 -167 -166 -296 -304 -308
-327 -11 -22 -27 -75 -35 -118 -8 -42 -58 -196 -110 -342 -156 -430 -238 -729
-295 -1070 -44 -257 -34 -558 21 -665 27 -52 58 -85 81 -85 15 0 18 8 18 49 0
40 14 80 81 222 168 362 225 466 320 572 75 86 218 178 469 302 282 140 509
222 676 246 87 12 123 -1 196 -69 41 -39 128 -150 128 -165 0 -2 27 -53 61
-113 33 -60 107 -203 164 -319 100 -204 174 -325 198 -325 7 0 44 37 84 83
166 190 315 306 480 375 94 40 182 21 217 -46 14 -27 13 -31 -23 -85 -20 -31
-76 -92 -124 -136 -70 -64 -110 -91 -210 -140 -106 -52 -130 -69 -172 -118
-27 -32 -67 -73 -88 -92 -92 -81 -89 -176 8 -276 30 -31 55 -59 55 -63 0 -14
57 -42 84 -42 25 0 26 3 26 52 0 59 31 132 62 149 11 6 21 9 23 7 1 -2 -15
-46 -36 -98 -54 -134 -56 -151 -25 -203 32 -55 51 -67 155 -97 84 -23 84 -23
120 -4 53 28 51 47 -8 72 l-51 21 16 38 c23 55 81 137 115 162 29 21 32 22 55
6 46 -30 64 -73 58 -135 -7 -61 -32 -109 -72 -140 -26 -20 -27 -20 -8 -35 37
-29 115 -15 196 34 8 5 27 14 41 21 15 7 37 30 49 52 21 37 23 53 22 182 0 77
-3 155 -7 171 -5 22 2 48 25 99 l31 69 39 -38 c25 -25 43 -36 49 -30 6 6 41
55 78 110 50 72 86 112 130 145 180 133 220 160 240 160 30 0 82 -54 120 -125
l31 -60 -25 -49 c-64 -125 -170 -430 -212 -612 -11 -44 -19 -56 -59 -85 -26
-18 -86 -71 -134 -117 l-87 -84 -138 26 c-469 89 -687 88 -889 -4 -82 -37
-166 -105 -305 -247 -229 -234 -378 -416 -406 -498 -24 -71 -22 -176 6 -247
79 -203 374 -475 594 -547 57 -19 74 -20 227 -11 158 8 237 22 316 55 20 8 38
15 40 15 2 0 -10 -25 -27 -55 l-31 -56 12 -92 c11 -86 11 -96 -10 -157 -26
-77 -39 -213 -21 -224 7 -5 30 9 55 32 24 22 68 56 98 76 l54 36 50 -17 c27
-10 50 -18 51 -18 1 0 7 -38 12 -85 6 -46 17 -90 24 -97 10 -10 33 6 117 82
l105 94 57 1 c58 0 91 -17 215 -109 17 -13 35 -21 41 -17 17 10 35 124 29 183
-6 53 -4 58 28 96 19 22 44 66 56 96 18 49 21 71 16 174 -2 65 -1 120 3 122 4
3 129 16 276 30 374 34 547 67 736 140 77 30 103 35 239 43 139 9 157 9 203
-8 142 -52 433 -112 648 -135 81 -8 150 -15 154 -15 3 0 -17 -25 -45 -56 -44
-48 -51 -61 -51 -97 0 -42 33 -123 67 -164 12 -15 109 -56 305 -127 367 -135
403 -146 452 -146 28 0 83 -19 176 -60 74 -33 140 -60 147 -60 28 0 0 111 -42
167 -22 28 -25 37 -14 44 20 12 42 3 143 -57 49 -29 93 -51 98 -48 15 9 8 88
-12 133 -11 24 -18 46 -16 49 5 5 105 -19 139 -33 24 -10 23 24 -2 74 -27 51
-80 96 -141 118 -36 13 -53 25 -61 45 -17 41 -65 78 -101 78 -51 0 -106 21
-148 57 -22 19 -40 38 -40 41 0 4 18 22 39 39 32 27 66 40 177 68 236 61 457
159 679 303 189 122 361 286 490 467 77 108 160 261 146 270 -6 3 -24 -21 -40
-53 -81 -161 -255 -382 -401 -509 -150 -130 -411 -286 -616 -367 -108 -43
-271 -94 -328 -103 l-41 -6 26 34 c14 19 51 68 83 110 l57 77 97 22 c236 55
489 164 662 287 120 86 311 275 377 373 62 93 106 178 98 191 -11 16 -24 0
-59 -70 -52 -102 -142 -216 -257 -325 -98 -92 -113 -103 -254 -171 -239 -116
-488 -217 -592 -239 l-32 -7 21 53 c19 51 19 56 4 119 -9 37 -16 69 -16 72 0
2 27 7 60 10 166 18 419 88 567 158 46 22 123 67 172 99 91 61 245 205 270
253 23 44 2 45 -32 2 -107 -134 -237 -238 -402 -319 -166 -82 -389 -147 -586
-171 l-56 -7 -28 74 c-39 107 -88 207 -124 255 -18 25 -120 109 -251 208 -231
173 -386 303 -481 402 -56 57 -57 59 -74 153 -24 140 -71 320 -117 450 -61
175 -64 154 42 264 51 53 99 96 105 96 20 0 125 -81 184 -141 61 -62 100 -116
137 -189 26 -52 44 -61 76 -36 18 13 65 110 87 179 7 20 15 37 18 37 16 0 145
-173 189 -254 l38 -70 1 -137 c0 -132 1 -138 25 -164 14 -15 45 -38 70 -52 25
-14 63 -38 85 -53 49 -33 79 -43 105 -35 25 8 25 26 0 67 -11 18 -20 45 -20
60 0 15 -7 43 -16 62 -16 33 -16 35 7 77 13 23 36 51 51 62 26 19 27 19 59 1
39 -23 69 -77 69 -124 0 -29 -8 -42 -47 -77 l-48 -41 30 -12 c33 -13 153 -7
216 10 46 13 57 26 76 92 27 94 27 112 -1 164 -33 63 -33 74 3 74 46 0 81 -52
81 -118 0 -44 3 -52 19 -52 34 0 72 42 113 127 62 128 49 173 -72 251 -30 19
-80 58 -110 85 -56 50 -158 105 -240 128 -79 22 -79 25 -5 134 144 213 412
527 491 576 l34 21 67 -23 c135 -45 536 -265 793 -435 221 -146 275 -208 334
-386 56 -166 156 -614 156 -696 0 -20 -7 -62 -15 -92 -8 -30 -15 -72 -15 -93
0 -37 1 -38 32 -35 28 3 38 12 65 57 55 91 223 631 273 875 17 81 20 137 20
321 l0 223 -34 119 c-159 546 -634 1555 -802 1703 -32 27 -120 73 -327 169
-174 80 -385 236 -518 382 -78 85 -134 156 -226 283 -18 25 -52 58 -75 74 -42
29 -124 62 -153 62 -8 0 -15 4 -15 8 0 19 -141 223 -195 280 -70 76 -104 96
-148 86 -80 -17 -86 -52 -28 -175 22 -47 53 -121 70 -167 l30 -82 -32 -16
c-67 -34 -107 -88 -107 -144 0 -17 -27 -84 -64 -158 -115 -230 -336 -767 -430
-1047 -26 -77 -57 -154 -67 -172 -28 -45 -76 -83 -105 -83 -14 0 -39 -7 -57
-16 -72 -37 -341 -230 -482 -344 -82 -67 -124 -83 -192 -74 -75 9 -108 -10
-204 -120 l-83 -96 -37 36 c-32 31 -37 44 -43 97 -24 217 -89 538 -201 987
-40 162 -76 328 -80 369 l-7 73 33 -7 c66 -14 185 -57 269 -97 47 -23 103 -43
126 -46 89 -10 146 101 84 162 -14 14 -146 106 -294 205 l-269 180 -33 68
c-50 104 -77 124 -244 183 -128 46 -154 52 -217 50 -42 0 -96 -9 -128 -20
l-55 -19 -82 39 c-46 21 -114 48 -153 60 -38 12 -92 32 -120 45 -93 44 -126
48 -181 24 -27 -12 -65 -32 -84 -44 -22 -14 -59 -24 -98 -28 -91 -8 -112 -25
-112 -90 -1 -28 -8 -70 -16 -92 -28 -69 -27 -98 2 -189 15 -47 32 -90 38 -95
6 -5 27 -13 46 -18 33 -9 35 -13 42 -60 10 -65 43 -156 66 -175 18 -17 160
-68 187 -68 8 0 33 9 54 19 l38 20 46 -44 c50 -49 130 -147 196 -241 45 -66
89 -93 163 -103 38 -6 42 -10 60 -56 30 -77 76 -259 92 -370 38 -256 50 -795
17 -795 -3 0 -32 37 -64 83 -106 151 -97 145 -217 153 l-105 7 -97 88 c-113
103 -223 186 -349 264 -113 70 -397 217 -464 240 -66 23 -115 76 -147 162 -14
37 -98 289 -186 558 -153 468 -161 494 -165 585 -2 65 -10 107 -22 132 l-18
37 53 93 c29 51 77 127 106 170 70 99 71 148 4 183 -38 20 -57 18 -103 -6z
m82 -14 c61 -31 56 -64 -32 -194 -57 -84 -77 -107 -88 -100 -32 20 -42 -4 -11
-27 16 -12 16 -14 0 -30 -14 -14 -22 -15 -49 -5 -42 14 -49 14 -49 -3 0 -8 16
-20 35 -26 19 -6 35 -13 35 -15 0 -2 -11 -23 -25 -46 -26 -47 -31 -74 -15 -84
5 -3 17 11 25 32 15 35 17 37 28 18 6 -11 14 -69 18 -130 6 -102 12 -126 83
-335 43 -124 118 -351 167 -505 50 -154 102 -305 115 -336 34 -76 75 -113 154
-139 134 -45 448 -219 606 -336 105 -77 249 -208 293 -265 35 -47 61 -62 61
-36 0 7 -6 19 -12 26 -11 11 2 13 76 8 88 -6 90 -7 120 -43 17 -20 55 -71 83
-112 l53 -76 -70 -72 c-39 -39 -70 -76 -70 -80 0 -5 -4 -15 -9 -22 -19 -31
-96 24 -253 181 -227 227 -440 379 -723 516 -155 75 -244 107 -379 134 -142
29 -142 29 -167 218 -53 407 -177 905 -281 1130 l-35 76 -49 7 c-27 4 -73 17
-103 30 l-54 23 -81 -24 c-140 -43 -281 -102 -449 -186 -292 -148 -380 -203
-476 -298 -84 -83 -267 -233 -476 -391 -146 -110 -319 -301 -447 -493 -106
-161 -276 -505 -362 -738 -133 -356 -214 -799 -234 -1272 l-7 -170 -27 45
c-37 62 -58 191 -58 356 0 151 18 295 61 499 67 314 110 461 247 845 58 162
113 334 123 383 10 48 26 102 35 119 9 18 135 149 279 293 267 266 491 509
574 625 96 134 156 172 366 236 189 56 297 99 490 194 189 93 297 159 379 231
44 39 54 43 101 43 30 1 56 -2 60 -6 4 -3 -1 -18 -11 -33 -12 -18 -14 -29 -6
-37 7 -7 21 8 47 48 79 124 211 264 319 336 48 33 40 31 75 13z m4437 -77 c94
-89 219 -278 238 -360 4 -16 13 -28 22 -28 12 0 14 7 9 31 -7 31 -6 32 21 25
93 -23 146 -70 254 -226 119 -172 340 -373 548 -498 40 -24 136 -73 214 -108
185 -83 238 -117 283 -176 207 -271 646 -1256 766 -1716 62 -242 32 -490 -121
-995 -105 -348 -178 -522 -207 -493 -3 3 13 78 36 168 44 178 78 364 113 618
18 134 22 214 23 425 0 252 -1 263 -28 370 -68 272 -107 366 -356 870 -190
384 -213 425 -265 477 -31 31 -77 69 -104 84 -194 111 -396 233 -441 266 -30
23 -134 118 -232 213 -167 163 -364 341 -454 411 -38 30 -46 32 -155 39 -132
8 -126 11 -194 -98 -98 -154 -196 -380 -311 -717 -77 -226 -116 -375 -145
-550 -36 -212 -69 -261 -191 -287 -183 -37 -403 -125 -542 -216 -97 -63 -177
-132 -177 -153 0 -20 10 -17 38 9 14 12 5 -3 -20 -34 -25 -31 -53 -75 -64 -97
-16 -36 -23 -42 -51 -42 -18 0 -66 -11 -107 -24 l-75 -24 -63 81 c-98 126 -92
114 -71 141 60 77 128 153 151 168 19 13 48 18 100 18 91 0 122 13 219 93 92
75 313 237 398 292 36 23 80 42 109 46 90 15 125 64 197 275 98 290 347 894
449 1092 21 42 42 97 46 122 9 56 26 84 70 111 38 23 54 19 54 -17 0 -15 6
-24 16 -24 11 0 14 8 12 28 -3 26 -1 27 67 37 51 7 70 14 70 25 0 9 -8 14 -20
13 -11 -1 -46 -5 -77 -9 -48 -5 -58 -4 -58 8 0 9 13 18 31 22 38 7 28 28 -12
24 -29 -3 -31 0 -68 92 -21 52 -50 115 -65 140 -42 73 -30 109 37 110 20 0 43
-14 83 -52z m-3322 -272 c28 -14 82 -32 120 -42 37 -9 111 -39 164 -65 l95
-48 46 18 c64 26 172 36 217 21 l36 -12 -48 -18 c-89 -32 -169 -69 -172 -78
-2 -6 21 -21 51 -35 62 -28 273 -152 300 -175 20 -18 24 -57 4 -49 -86 33
-392 97 -463 97 -52 0 -122 32 -204 93 -61 46 -76 48 -246 28 -5 0 -39 -20
-75 -43 -74 -48 -135 -58 -229 -36 -52 13 -55 15 -58 46 -2 19 4 44 12 57 9
14 16 42 16 64 0 34 2 38 20 34 11 -3 20 -1 20 4 0 5 -9 16 -20 26 -11 9 -20
21 -20 25 0 16 50 32 99 32 39 0 66 9 132 45 95 52 117 53 203 11z m598 -218
c-9 -9 -15 -9 -24 0 -9 9 -7 12 12 12 19 0 21 -3 12 -12z m146 -24 c31 -12 32
-15 32 -68 0 -31 -5 -56 -10 -56 -6 0 -35 14 -65 31 -40 22 -54 36 -51 48 3 9
8 29 12 44 7 30 12 30 82 1z m-685 -77 l29 -12 -26 -24 c-29 -28 -33 -26 -46
18 -10 35 -3 38 43 18z m-54 -67 c11 -33 31 -39 51 -15 18 22 24 20 94 -35 54
-42 116 -113 116 -132 0 -3 -29 -8 -64 -12 -92 -9 -159 -32 -210 -71 -78 -59
-93 -64 -184 -58 -94 7 -94 6 -116 103 l-15 62 22 -6 c68 -20 83 -18 162 21
l78 40 -64 6 c-35 4 -90 3 -123 -3 -58 -9 -146 -4 -146 10 0 4 5 21 11 38 12
35 30 42 114 42 41 0 74 7 100 20 27 14 59 20 101 20 60 0 62 -1 73 -30z
m-403 6 c3 -7 -1 -29 -9 -47 l-15 -34 -9 25 c-26 65 -26 70 2 70 14 0 28 -6
31 -14z m2001 -412 c-1 -2 -39 8 -82 22 -91 28 -239 104 -369 188 -70 45 -86
60 -77 70 8 10 8 22 1 40 -5 15 -10 32 -10 37 0 6 122 -72 270 -172 149 -100
269 -183 267 -185z m-398 -612 c73 -292 118 -517 151 -749 l19 -134 68 -73
c37 -40 102 -119 143 -174 41 -56 81 -101 88 -102 15 0 16 12 0 28 -6 6 -9 14
-7 17 8 7 159 45 181 45 10 0 60 -31 111 -69 119 -89 136 -97 270 -127 95 -21
147 -26 343 -31 l231 -6 89 -74 c49 -41 161 -132 249 -201 88 -69 183 -145
211 -168 29 -23 74 -49 100 -59 149 -55 194 -78 260 -136 38 -33 85 -69 104
-79 19 -10 50 -34 68 -53 l34 -35 -21 -40 c-38 -75 -105 -95 -151 -47 -19 21
-30 24 -57 19 l-33 -6 0 47 c0 33 -4 45 -12 42 -21 -7 -15 -127 9 -175 19 -38
19 -43 5 -64 -29 -42 -40 -48 -83 -48 -35 0 -47 6 -73 33 -42 45 -95 84 -127
92 -21 5 -34 0 -62 -25 -44 -38 -81 -112 -73 -144 4 -18 0 -25 -20 -34 -46
-21 -90 -15 -129 19 -35 31 -35 32 -35 110 0 58 5 90 19 117 23 46 34 113 25
158 -5 28 -20 44 -88 93 -123 90 -176 142 -273 266 -48 63 -95 117 -103 121
-8 3 -103 10 -210 14 -199 8 -317 26 -459 71 -109 34 -104 37 -66 -44 66 -138
208 -483 246 -600 39 -121 77 -278 104 -431 26 -155 18 -161 -29 -21 -85 253
-179 418 -321 561 -182 184 -403 284 -624 284 -206 0 -366 -70 -545 -240 -163
-155 -324 -414 -407 -658 -24 -70 -34 -90 -41 -78 -5 9 -13 16 -18 16 -14 0
-12 -27 4 -58 12 -23 11 -58 -5 -247 -10 -121 -23 -232 -28 -247 -35 -101
-169 -229 -439 -421 -510 -363 -612 -413 -720 -358 -57 30 -122 97 -122 128 0
42 50 250 82 342 71 206 183 391 361 596 114 133 216 225 320 292 37 24 65 48
62 53 -4 7 -13 6 -26 -1 -12 -6 -22 -9 -24 -7 -7 7 68 258 116 385 28 76 88
215 134 309 l84 172 80 3 c71 4 85 8 126 37 25 17 50 32 55 32 6 0 10 5 10 11
0 6 9 23 19 38 57 79 16 92 -319 96 -290 4 -484 21 -507 43 -13 14 -17 12 -39
-14 -14 -16 -35 -49 -48 -74 -39 -77 -163 -267 -243 -373 -68 -89 -77 -107
-81 -151 -3 -42 1 -57 21 -87 13 -20 27 -51 31 -70 11 -53 14 -270 4 -306 -8
-29 -13 -32 -61 -38 -30 -4 -64 -2 -80 4 -26 10 -27 14 -26 65 2 59 -6 78 -62
138 -19 19 -40 43 -47 52 -7 9 -24 19 -37 22 -21 5 -35 -5 -97 -72 -128 -139
-134 -144 -165 -144 -16 0 -38 6 -48 14 -18 13 -17 18 29 127 69 164 71 168
63 175 -3 4 -12 2 -19 -3 -7 -6 -29 -15 -48 -22 -31 -10 -69 -37 -134 -97 -17
-15 -25 -16 -65 -5 -78 21 -94 36 -89 86 5 36 18 57 83 132 99 113 129 139
185 160 84 32 194 105 273 182 58 56 111 125 202 263 68 102 143 205 167 229
l43 42 235 -6 c256 -6 353 1 456 33 77 23 117 50 189 127 34 35 59 53 74 53
13 0 55 -18 92 -39 84 -48 131 -66 154 -57 14 5 15 9 5 20 -17 22 9 64 83 132
35 33 69 69 76 81 6 13 14 87 18 165 9 213 -14 531 -53 758 l-6 35 48 -46 c48
-46 119 -89 148 -89 28 0 154 152 321 387 28 39 51 70 52 69 1 -1 34 -129 72
-284z m1958 -564 c-3 -8 -6 -5 -6 6 -1 11 2 17 5 13 3 -3 4 -12 1 -19z m480
-90 c-3 -8 -6 -5 -6 6 -1 11 2 17 5 13 3 -3 4 -12 1 -19z m-480 -70 c-2 -13
-4 -3 -4 22 0 25 2 35 4 23 2 -13 2 -33 0 -45z m468 15 c-3 -21 -10 -42 -15
-46 -4 -5 -3 12 3 37 12 55 22 62 12 9z m1542 -585 c-3 -8 -6 -5 -6 6 -1 11 2
17 5 13 3 -3 4 -12 1 -19z m-3727 -563 c92 -22 255 -104 341 -173 209 -166
358 -424 449 -778 35 -134 37 -195 11 -319 -52 -247 -171 -456 -364 -641 -178
-172 -359 -268 -622 -330 -54 -13 -124 -17 -305 -18 -225 -1 -240 0 -353 27
-103 25 -281 80 -370 116 l-28 11 36 43 c79 92 124 227 145 432 20 194 6 364
-47 555 l-26 94 33 99 c126 373 369 696 620 822 118 60 176 75 300 75 68 0
142 -7 180 -15z m2420 -499 c0 -7 -12 -26 -27 -42 l-26 -29 -10 28 c-5 15 -6
34 -3 42 7 19 66 20 66 1z m-5396 -182 c10 -25 7 -34 -9 -34 -19 0 -65 29 -65
41 0 16 67 10 74 -7z m5015 -46 c12 -16 10 -18 -25 -18 l-39 1 24 20 c13 11
24 18 25 17 1 -2 8 -11 15 -20z m-195 -53 c9 -13 16 -27 16 -30 0 -11 -37 -4
-58 11 -22 15 -22 17 -5 30 25 18 28 18 47 -11z m-4497 -129 c-4 -14 -51 -20
-84 -11 l-26 6 23 24 c22 23 23 23 56 7 19 -9 33 -21 31 -26z m207 37 c4 -5
22 -13 39 -19 l32 -11 -32 -16 c-18 -10 -51 -17 -73 -17 l-42 0 29 34 c30 37
36 40 47 29z m3561 -245 c44 -35 170 -132 281 -215 230 -173 240 -185 311
-370 56 -148 86 -267 79 -309 -7 -33 -105 -190 -134 -211 -22 -18 -67 -16
-107 3 -38 18 -97 89 -149 182 -51 90 -104 149 -240 266 -145 124 -192 174
-218 233 -24 54 -77 404 -83 552 l-5 103 93 -84 c50 -46 128 -114 172 -150z
m-3620 67 c109 -14 349 -54 434 -73 l34 -7 -43 -50 c-43 -50 -44 -50 -214
-103 -110 -34 -217 -59 -298 -71 l-127 -19 -63 26 c-106 42 -342 41 -378 -3
-18 -21 1 -24 70 -9 82 17 173 18 242 2 l53 -13 -94 -5 c-63 -3 -96 -9 -99
-17 -3 -10 28 -13 130 -13 195 0 345 22 531 80 127 39 156 45 145 30 -126
-173 -211 -332 -264 -496 l-36 -112 -86 -40 c-245 -113 -500 -189 -667 -198
-170 -10 -387 49 -484 131 -32 28 -33 31 -28 86 6 71 43 155 99 222 135 166
378 423 483 512 155 132 369 177 660 140z m2852 -1109 c49 -29 140 -80 201
-112 116 -61 120 -67 106 -121 -6 -20 -13 -23 -58 -23 -85 0 -285 28 -463 65
-164 34 -336 82 -300 84 40 2 238 74 317 115 47 24 90 45 96 45 6 1 52 -23
101 -53z m-1389 -45 c118 -37 258 -69 377 -86 l50 -8 -70 -24 c-92 -32 -289
-79 -390 -93 -44 -6 -189 -21 -322 -34 l-243 -22 0 23 c0 13 4 23 8 23 17 0
188 129 282 213 l95 84 43 -18 c24 -10 100 -37 170 -58z m-1486 9 c-2 -32 1
-102 7 -155 10 -88 10 -98 -8 -134 -15 -29 -32 -43 -78 -64 -106 -47 -173 -58
-358 -60 l-171 -2 -86 43 c-110 54 -225 139 -329 243 -44 44 -79 82 -77 84 2
1 46 -9 98 -22 131 -35 333 -37 502 -5 132 25 356 81 438 111 30 11 58 20 61
20 3 1 3 -26 1 -59z m209 -458 c171 -92 298 -169 336 -201 22 -19 22 -19 5
-90 l-17 -71 -41 0 c-37 0 -42 3 -47 28 -20 98 -76 192 -116 192 -47 0 -111
-83 -135 -176 -10 -37 -13 -41 -33 -33 -16 6 -23 17 -23 36 -1 15 -7 57 -15
93 -10 50 -21 71 -44 92 -40 36 -70 35 -107 -3 l-29 -30 -7 38 c-14 77 -9 109
29 177 35 64 37 65 59 51 12 -8 96 -54 185 -103z m3859 67 c14 -7 52 -16 85
-20 49 -6 64 -13 87 -38 28 -31 33 -56 22 -98 -6 -20 -11 -22 -46 -17 -32 6
-43 3 -64 -17 -49 -45 -69 -110 -42 -137 8 -8 8 -12 1 -12 -6 0 -16 7 -24 16
-34 41 -104 55 -155 32 -25 -12 -29 -10 -60 27 -19 22 -41 55 -50 74 -16 32
-15 37 1 67 22 41 66 83 134 128 47 30 57 34 70 22 9 -7 27 -19 41 -27z m330
-178 c33 -27 84 -91 77 -97 -4 -4 -109 14 -145 24 -36 11 -56 51 -43 86 10 25
15 28 44 22 17 -4 48 -19 67 -35z m-4331 -46 c31 -40 54 -165 30 -165 -12 0
-122 -73 -178 -118 l-34 -27 7 58 c17 132 89 277 137 277 10 0 27 -11 38 -25z
m4217 -29 c38 -39 57 -69 70 -110 10 -31 15 -58 12 -62 -8 -7 -219 104 -235
124 -14 17 -4 42 30 80 34 36 65 28 123 -32z m-3927 -12 c25 -31 61 -126 61
-159 0 -17 -24 -45 -85 -102 -47 -43 -89 -79 -94 -81 -13 -4 -21 52 -21 142 0
90 21 150 67 199 33 34 46 34 72 1z m343 -11 c14 -16 33 -45 42 -67 25 -59 19
-211 -8 -204 -6 2 -46 26 -88 53 -67 44 -77 54 -77 80 -2 71 49 165 88 165 10
0 29 -12 43 -27z m3337 -47 c57 -30 140 -146 141 -198 0 -14 -13 -11 -82 21
-46 21 -104 46 -130 56 -42 16 -48 21 -48 47 0 31 16 68 34 80 18 12 55 9 85
-6z"/>
<path d="M2785 7921 c-3 -5 -1 -13 5 -16 8 -5 8 -11 0 -20 -13 -16 -6 -21 49
-34 34 -7 43 -6 48 5 3 8 16 14 29 14 15 0 24 6 24 15 0 10 -10 15 -32 15 -18
1 -51 7 -73 15 -48 18 -43 17 -50 6z"/>
<path d="M7708 7863 c-36 -3 -48 -8 -48 -20 0 -14 10 -15 76 -10 80 7 98 13
89 28 -6 9 -23 9 -117 2z"/>
<path d="M4165 7997 c-56 -49 -37 -68 21 -21 24 20 41 40 38 45 -9 15 -19 11
-59 -24z"/>
<path d="M5530 5624 c-64 -17 -115 -23 -203 -23 -90 -1 -118 -4 -115 -13 6
-18 83 -30 160 -24 55 4 66 2 61 -10 -6 -17 38 -18 111 -1 53 13 74 36 34 38
-19 0 -17 3 11 13 34 12 50 30 34 38 -4 2 -46 -6 -93 -18z"/>
<path d="M4290 5330 c0 -6 16 -42 36 -81 24 -48 39 -68 46 -61 6 6 -2 33 -26
81 -32 63 -56 89 -56 61z"/>
<path d="M4257 5314 c-9 -10 25 -74 40 -74 17 0 16 14 -2 50 -15 29 -26 36
-38 24z"/>
<path d="M8595 5334 c4 -11 10 -31 13 -46 4 -27 -1 -35 -85 -108 -27 -23 -30
-62 -8 -104 8 -15 15 -49 15 -73 0 -39 -5 -50 -34 -77 -69 -63 -71 -106 -11
-220 46 -88 58 -146 30 -146 -8 0 -15 -9 -15 -20 0 -28 -33 -26 -53 3 -16 22
-16 22 -11 -9 6 -31 -13 -82 -53 -146 -16 -25 -16 -27 10 -67 31 -47 32 -54
12 -71 -20 -17 -19 -36 5 -68 27 -37 38 -102 18 -102 -9 0 -21 7 -28 15 -10
12 -16 13 -27 4 -10 -9 -18 -8 -31 5 -18 15 -19 13 -20 -60 -2 -66 1 -82 25
-124 l27 -49 -22 -44 c-28 -55 -41 -127 -35 -178 7 -52 41 -79 99 -79 47 0 51
5 29 34 -19 26 -19 57 2 115 15 44 15 50 0 80 l-17 33 44 44 c40 39 45 50 51
101 3 32 7 65 8 73 2 11 9 8 29 -11 16 -17 30 -23 36 -17 6 6 21 -1 40 -16 16
-14 35 -26 41 -26 17 0 30 34 37 102 7 71 -10 121 -45 133 -22 7 -51 72 -51
113 1 46 35 107 85 148 43 36 46 42 42 77 -4 26 -1 37 8 37 7 0 16 -6 19 -12
3 -7 4 10 1 39 -4 33 -1 64 8 85 10 23 13 59 9 118 l-4 85 24 -35 c13 -19 35
-39 49 -44 21 -7 30 -3 55 20 17 16 40 37 52 46 31 25 28 42 -18 92 -32 35
-40 51 -40 82 -1 32 -2 36 -11 21 -7 -12 -17 -16 -30 -12 -10 4 -19 2 -19 -4
0 -14 -29 -41 -45 -41 -33 0 -46 30 -39 89 5 47 2 64 -16 98 -19 38 -24 41
-42 30 -21 -13 -24 -11 -71 62 -25 39 -56 57 -42 25z"/>
<path d="M9110 4252 c-22 -41 -29 -47 -57 -47 l-33 0 0 -90 c-1 -59 -6 -99
-15 -115 -19 -33 -18 -40 3 -40 9 0 30 16 45 35 25 31 58 51 42 25 -12 -19 17
-52 62 -71 57 -24 72 -43 73 -91 0 -21 3 -38 8 -38 21 0 70 41 81 69 22 52 9
90 -64 189 -13 18 -29 57 -36 86 -12 53 -12 53 -40 43 -15 -6 -31 -9 -34 -6
-3 3 -6 27 -7 52 -1 26 -2 47 -3 47 0 0 -11 -21 -25 -48z"/>
</g>
</svg>
